<?xml version="1.0" encoding="utf-8"?>
<!-- Generator: Adobe Illustrator 26.0.3, SVG Export Plug-In . SVG Version: 6.00 Build 0)  -->
<svg version="1.1" id="Capa_1" xmlns="http://www.w3.org/2000/svg" xmlns:xlink="http://www.w3.org/1999/xlink" x="0px" y="0px"
	 viewBox="0 0 218.29 191.02" style="enable-background:new 0 0 218.29 191.02;" xml:space="preserve">
<style type="text/css">
	.st0{fill:#FFFFFF;}
</style>
<g>
	<path class="st0" d="M69.45,144.67c-2.4,0-4.28,0.7-5.66,2.11c-1.38,1.4-2.06,3.26-2.06,5.56c0,2.3,0.69,4.17,2.06,5.59
		c1.37,1.42,3.26,2.13,5.66,2.13c2.43,0,4.32-0.71,5.68-2.13c1.36-1.42,2.04-3.28,2.04-5.59c0-2.28-0.68-4.12-2.04-5.54
		C73.77,145.38,71.87,144.67,69.45,144.67z"/>
	<path class="st0" d="M32.51,154.65h-3.64v7.67h3.64c3.69,0,5.53-1.27,5.53-3.81C38.03,155.93,36.19,154.65,32.51,154.65z"/>
	<path class="st0" d="M35.23,148.88c0.91-0.47,1.36-1.43,1.36-2.88c0-1.45-0.47-2.41-1.4-2.88c-0.94-0.47-2.41-0.71-4.43-0.71h-1.89
		v7.18h1.93C32.84,149.59,34.32,149.36,35.23,148.88z"/>
	<path class="st0" d="M199.5,119.31c-1.51-2.62-4.31-4.23-7.33-4.23H26.11c-3.02,0-5.82,1.61-7.33,4.23L1.75,148.81
		c-1.51,2.62-1.51,5.84,0,8.46l17.04,29.51c1.51,2.62,4.31,4.23,7.33,4.23h166.06c3.02,0,5.82-1.61,7.33-4.23l17.04-29.51
		c1.51-2.62,1.51-5.84,0-8.46L199.5,119.31z M44.42,165.04c-1.74,1.55-4.19,2.33-7.35,2.33H19.92v-30.01h14.35
		c3.63,0,6.32,0.65,8.07,1.95c1.75,1.3,2.63,3,2.63,5.1c0,1.66-0.44,3.07-1.32,4.23c-0.88,1.17-1.83,1.96-2.85,2.37
		c1.99,0.8,3.52,1.81,4.61,3.04c1.08,1.23,1.62,2.83,1.62,4.81C47.03,161.43,46.16,163.49,44.42,165.04z M81.88,163.34
		c-2.94,2.96-7.08,4.43-12.44,4.43c-2.81,0-5.32-0.44-7.52-1.31c-2.21-0.87-3.97-2.04-5.29-3.5c-1.32-1.46-2.32-3.1-3.01-4.9
		c-0.69-1.8-1.03-3.71-1.03-5.72c0-2.01,0.34-3.91,1.03-5.7c0.69-1.79,1.69-3.41,3.01-4.88c1.32-1.46,3.08-2.63,5.29-3.5
		c2.21-0.87,4.72-1.31,7.52-1.31c2.75,0,5.21,0.42,7.39,1.26c2.18,0.84,3.95,1.98,5.31,3.41c1.36,1.43,2.39,3.06,3.09,4.88
		c0.7,1.82,1.05,3.76,1.05,5.83C86.29,156.72,84.82,160.38,81.88,163.34z M125.86,167.37h-7.98l-15.4-16.71v16.71h-8.86v-30.01h7.94
		l15.36,16.62v-16.62h8.95V167.37z M166.01,153.94c0,2.07-0.34,3.92-1.01,5.56c-0.67,1.64-1.54,2.97-2.59,3.99
		c-1.05,1.02-2.29,1.86-3.71,2.53c-1.42,0.66-2.81,1.12-4.17,1.37s-2.76,0.38-4.19,0.38c-1.43,0-2.83-0.13-4.19-0.38
		c-1.36-0.25-2.76-0.71-4.19-1.37c-1.43-0.66-2.68-1.51-3.73-2.53c-1.05-1.02-1.92-2.35-2.59-3.99c-0.67-1.64-1.01-3.49-1.01-5.56
		v-16.58h8.95v14.23c0,2.96,0.61,5.14,1.82,6.54c1.21,1.4,2.86,2.11,4.94,2.11c2.05,0,3.68-0.69,4.89-2.08
		c1.21-1.39,1.82-3.56,1.82-6.52v-14.27h8.95V153.94z M192.42,165.31c-2.08,1.64-4.78,2.46-8.12,2.46c-3.33,0-6.81-0.8-10.44-2.39
		v-7.36c3.42,2.19,6.45,3.28,9.08,3.28c0.67,0,1.25-0.07,1.73-0.2c0.48-0.13,0.84-0.29,1.07-0.47c0.23-0.18,0.42-0.39,0.57-0.64
		c0.15-0.25,0.23-0.44,0.24-0.55c0.01-0.12,0.02-0.24,0.02-0.35c0-0.8-0.37-1.46-1.12-1.99c-0.75-0.53-1.88-1.12-3.4-1.77
		c-1.2-0.5-2.24-1.01-3.12-1.53c-0.88-0.52-1.75-1.16-2.63-1.93c-0.88-0.77-1.55-1.68-2.02-2.73c-0.47-1.05-0.7-2.21-0.7-3.48
		c0-2.48,0.91-4.55,2.74-6.21c1.83-1.65,4.48-2.48,7.96-2.48c1.67,0,3.3,0.2,4.91,0.6c1.61,0.4,2.76,0.75,3.44,1.06
		c0.69,0.31,1.22,0.6,1.6,0.86v7.05c-3.25-2.28-6.2-3.41-8.86-3.41c-1.11,0-1.92,0.22-2.41,0.66c-0.5,0.44-0.75,0.98-0.75,1.6
		c0,0.59,0.24,1.1,0.72,1.53c0.48,0.43,1.38,0.95,2.7,1.57c1.78,0.86,3.15,1.55,4.1,2.08c0.95,0.53,1.94,1.21,2.96,2.04
		c1.02,0.83,1.75,1.72,2.17,2.68c0.42,0.96,0.64,2.08,0.64,3.35C195.53,161.44,194.49,163.67,192.42,165.31z"/>
	<polygon class="st0" points="28.14,42.22 54.43,74.81 56.7,74.81 82.85,42.22 82.85,98.51 111.85,98.51 111.85,1.29 85.55,1.29 
		55.85,37.77 26.29,1.29 0,1.29 0,98.51 28.14,98.51 	"/>
	<path class="st0" d="M179.92,44.95v19.53h13.07v11.49c-4.36,0.96-8.29,1.44-11.8,1.44c-9.57,0-17.01-2.63-22.31-7.9
		c-5.31-5.26-7.96-11.73-7.96-19.39c0-2.3,0.28-4.62,0.85-6.96c0.57-2.34,1.63-4.88,3.2-7.61c1.56-2.73,3.53-5.14,5.9-7.25
		c2.37-2.1,5.59-3.85,9.66-5.24c4.07-1.39,8.72-2.08,13.93-2.08c10.89,0,21.55,3.02,31.98,9.05V7.04C202.23,2.35,189.2,0,177.36,0
		c-7.77,0-14.88,0.81-21.32,2.44c-6.44,1.63-12.79,4.93-19.04,9.91c-5.31,4.21-9.24,9.72-11.8,16.51
		c-2.56,6.8-3.84,13.74-3.84,20.82c0,6.8,0.99,13,2.98,18.6c1.99,5.6,4.67,10.34,8.03,14.22c3.36,3.88,7.37,7.13,12.01,9.76
		c4.64,2.63,9.59,4.55,14.85,5.74c5.26,1.2,10.78,1.79,16.56,1.79c9.1,0,18.1-1.05,27-3.16c4.26-1.05,9.43-2.73,15.49-5.03V44.95
		H179.92z"/>
</g>
</svg>
