<?xml version="1.0" encoding="utf-8"?>
<!-- Generator: Adobe Illustrator 26.3.1, SVG Export Plug-In . SVG Version: 6.00 Build 0)  -->
<svg version="1.1" id="Capa_1" xmlns="http://www.w3.org/2000/svg" xmlns:xlink="http://www.w3.org/1999/xlink" x="0px" y="0px"
	 viewBox="0 0 1766.72 466.66" style="enable-background:new 0 0 1766.72 466.66;" xml:space="preserve">
<style type="text/css">
	.st0{fill:#FFFFFF;}
</style>
<g>
	<path class="st0" d="M560.67,198.05c6.29-8.59,11.34-17.77,15.14-27.52s6.33-19.75,7.56-30c1.02-8.43,1.18-16.57,0.49-24.43
		c-0.69-7.85-2.45-15.41-5.26-22.69c-2.81-7.27-6.65-13.55-11.51-18.85c-4.86-5.29-11.25-9.5-19.16-12.64s-16.96-4.71-27.13-4.71
		h-49.75l-20.46,169.36h51.72c12.48,0,23.75-2.6,33.82-7.81C546.19,213.55,554.37,206.65,560.67,198.05z M544.23,142.51
		c-2.2,18.19-6.62,31.99-13.25,41.41c-6.64,9.42-16.53,14.13-29.66,14.13h-9.11l13.57-112.33h11.08
		C539.67,85.72,548.8,104.65,544.23,142.51z"/>
	<polygon class="st0" points="698.17,197.3 636.11,197.3 641.2,155.15 696.86,155.15 700.4,125.89 644.74,125.89 649.5,86.47 
		709.34,86.47 712.88,57.21 614.86,57.21 594.41,226.56 694.64,226.56 	"/>
	<path class="st0" d="M893.65,216.15l3.98-32.98c-13.09,9.09-24.3,13.64-33.66,13.64c-11.82,0-20.28-4.75-25.37-14.26
		c-5.09-9.5-6.55-23.27-4.37-41.29c2.16-17.85,7.32-31.37,15.49-40.54s18-13.76,29.49-13.76c7.88,0,17.09,3.31,27.62,9.92
		l3.92-32.48c-11.23-6.28-23.49-9.42-36.79-9.42c-20.69,0-38.2,8.06-52.54,24.18c-14.34,16.12-23.13,37.57-26.37,64.35
		c-3.11,25.79,0.71,46.45,11.48,61.99c10.76,15.54,26.24,23.31,46.44,23.31C868.4,228.8,881.96,224.58,893.65,216.15z"/>
	<path class="st0" d="M931.76,208.46c5.58,6.78,11.99,11.86,19.21,15.25c7.22,3.38,15.11,5.08,23.64,5.08
		c6.07,0,12.13-0.87,18.17-2.6c6.04-1.74,12.31-4.71,18.81-8.93c6.5-4.21,12.36-9.54,17.57-15.99c5.21-6.45,9.83-14.75,13.85-24.92
		s6.8-21.61,8.34-34.34c1.84-15.21,1.48-28.6-1.06-40.17s-6.66-20.66-12.34-27.28c-5.69-6.61-12.12-11.53-19.28-14.75
		c-7.16-3.22-14.85-4.83-23.06-4.83c-8.37,0-16.68,1.78-24.9,5.33c-8.23,3.56-15.92,8.76-23.07,15.62s-13.28,15.83-18.39,26.9
		c-5.12,11.08-8.51,23.56-10.19,37.44c-1.84,15.21-1.58,28.68,0.78,40.42C922.21,192.43,926.18,201.69,931.76,208.46z M957.8,141.76
		c2.12-17.52,5.82-30.83,11.1-39.92c5.28-9.09,12.85-13.64,22.7-13.64c7.22,0,12.62,2.56,16.19,7.69c3.57,5.13,5.57,11.32,6,18.6
		c0.44,7.28-0.01,16.37-1.32,27.28c-2.38,19.67-6.31,33.56-11.8,41.66c-5.5,8.1-12.84,12.15-22.03,12.15
		c-10.02,0-16.53-4.5-19.55-13.51C956.07,173.05,955.64,159.61,957.8,141.76z"/>
	<polygon class="st0" points="1111.61,118.2 1112.1,118.2 1137.34,182.43 1144.73,182.43 1185.49,118.2 1185.98,118.2 
		1172.89,226.56 1208.85,226.56 1229.3,57.21 1194.82,57.21 1147.74,126.88 1117.5,57.21 1083.02,57.21 1062.56,226.56 
		1098.52,226.56 	"/>
	<polygon class="st0" points="1295.79,57.21 1257.62,57.21 1237.17,226.56 1275.34,226.56 	"/>
	<path class="st0" d="M1375.58,215.28c10.36-9.01,16.37-20.29,18-33.85c0.9-7.44-0.1-14.83-2.98-22.19
		c-2.89-7.35-6.66-13.84-11.32-19.46c-4.66-5.62-9.31-10.95-13.95-15.99c-4.65-5.04-8.57-9.92-11.78-14.63
		c-3.21-4.71-4.59-8.88-4.15-12.52c0.42-3.47,2.19-6.28,5.33-8.43c3.13-2.15,7-3.22,11.6-3.22c7.22,0,17.57,4.05,31.04,12.15
		l3.83-31.74c-11.81-6.94-23.62-10.41-35.44-10.41c-13.63,0-25.58,4.13-35.85,12.4c-10.28,8.27-16.15,18.52-17.63,30.75
		c-0.92,7.61,0,14.96,2.75,22.07s6.4,13.31,10.93,18.6s9.05,10.33,13.56,15.12c4.51,4.8,8.27,9.67,11.29,14.63
		c3.01,4.96,4.25,9.67,3.71,14.13c-0.5,4.13-2.35,7.52-5.54,10.17c-3.2,2.65-7.09,3.97-11.69,3.97c-9.2,0-20.3-5.95-33.31-17.85
		l-4.4,36.45c13.86,8.93,27.03,13.39,39.51,13.39C1353.05,228.8,1365.21,224.29,1375.58,215.28z"/>
	<polygon class="st0" points="1468.18,57.21 1430.01,57.21 1409.55,226.56 1447.72,226.56 	"/>
	<path class="st0" d="M1492.27,208.46c5.58,6.78,11.99,11.86,19.21,15.25c7.22,3.38,15.11,5.08,23.64,5.08
		c6.07,0,12.13-0.87,18.17-2.6c6.04-1.74,12.31-4.71,18.81-8.93c6.5-4.21,12.36-9.54,17.57-15.99c5.21-6.45,9.83-14.75,13.85-24.92
		s6.8-21.61,8.34-34.34c1.84-15.21,1.48-28.6-1.06-40.17s-6.66-20.66-12.34-27.28c-5.69-6.61-12.12-11.53-19.28-14.75
		s-14.85-4.83-23.06-4.83c-8.37,0-16.68,1.78-24.9,5.33c-8.23,3.56-15.92,8.76-23.07,15.62c-7.15,6.86-13.28,15.83-18.39,26.9
		c-5.12,11.08-8.51,23.56-10.19,37.44c-1.84,15.21-1.58,28.68,0.78,40.42C1482.71,192.43,1486.68,201.69,1492.27,208.46z
		 M1518.3,141.76c2.12-17.52,5.82-30.83,11.1-39.92s12.85-13.64,22.7-13.64c7.22,0,12.62,2.56,16.19,7.69
		c3.57,5.13,5.57,11.32,6,18.6c0.44,7.28-0.01,16.37-1.32,27.28c-2.38,19.67-6.31,33.56-11.8,41.66
		c-5.5,8.1-12.84,12.15-22.03,12.15c-10.02,0-16.53-4.5-19.55-13.51C1516.57,173.05,1516.15,159.61,1518.3,141.76z"/>
	<polygon class="st0" points="1601.01,3.4 1557.67,3.4 1531.98,44.81 1550.45,44.81 	"/>
	<polygon class="st0" points="1671.34,126.64 1671.83,126.64 1707.54,226.56 1740.78,226.56 1761.24,57.21 1725.28,57.21 
		1713.72,152.92 1713.23,152.92 1679.23,57.21 1643.77,57.21 1623.31,226.56 1659.27,226.56 	"/>
	<path class="st0" d="M487.91,291.34h-47.28l-17.77,147.11h33.16l7.23-59.88h13.91c7.7,0,14.67-1,20.9-3.01
		c6.23-2.01,11.24-4.53,15.03-7.54c3.79-3.02,6.99-6.53,9.62-10.55c2.62-4.02,4.51-7.79,5.64-11.31c1.14-3.52,1.92-7.07,2.36-10.66
		c1.42-11.77-1.4-22.08-8.46-30.91C515.18,295.76,503.74,291.34,487.91,291.34z M497.6,335.07c-0.71,5.89-2.72,10.38-6.01,13.46
		c-3.3,3.09-8.51,4.63-15.64,4.63h-9.63l4.4-36.4h10.7c6.56,0,11.05,1.76,13.48,5.28C497.32,325.55,498.22,329.9,497.6,335.07z"/>
	<path class="st0" d="M645.14,306.42c-4.94-5.74-10.52-10.02-16.74-12.82c-6.22-2.8-12.9-4.2-20.03-4.2
		c-7.27,0-14.49,1.54-21.63,4.63c-7.15,3.09-13.83,7.61-20.04,13.57c-6.21,5.96-11.54,13.75-15.98,23.37
		c-4.45,9.62-7.39,20.46-8.85,32.53c-1.6,13.21-1.37,24.91,0.68,35.11c2.05,10.2,5.5,18.24,10.35,24.12
		c4.85,5.89,10.41,10.3,16.69,13.25c6.28,2.94,13.12,4.42,20.54,4.42c5.28,0,10.54-0.75,15.78-2.26c5.24-1.51,10.69-4.09,16.34-7.75
		s10.74-8.29,15.26-13.89s8.53-12.82,12.03-21.65c3.49-8.83,5.9-18.77,7.24-29.83c1.6-13.21,1.29-24.84-0.92-34.89
		C653.65,320.06,650.08,312.16,645.14,306.42z M623.01,364.79c-2.06,17.09-5.48,29.15-10.25,36.18
		c-4.77,7.04-11.15,10.55-19.14,10.55c-8.7,0-14.36-3.91-16.98-11.74c-2.62-7.82-2.99-19.49-1.12-35
		c1.84-15.22,5.05-26.78,9.64-34.68s11.16-11.85,19.72-11.85c6.28,0,10.96,2.23,14.06,6.68c3.1,4.45,4.83,9.84,5.21,16.16
		C624.53,347.42,624.15,355.31,623.01,364.79z"/>
	<path class="st0" d="M735.84,291.34h-47.71l-17.77,147.11h33.16l7.49-62.03c3.85,0,6.67,0.25,8.47,0.75
		c1.79,0.51,3.53,2.08,5.2,4.74s2.98,6,3.93,10.02c0.94,4.02,2.1,10.34,3.49,18.96l4.58,27.57h34.44
		c-1.88-6.89-4.02-16.66-6.41-29.29c-2.4-12.63-4.69-22.29-6.88-28.97s-5.08-11.09-8.67-13.25c8.99-3.59,15.78-8.15,20.37-13.68
		c4.59-5.53,7.39-12.46,8.39-20.79c1.49-12.35-1.48-22.29-8.91-29.83C761.59,295.11,750.53,291.34,735.84,291.34z M744.68,333.34
		c-0.69,5.74-2.79,10.12-6.29,13.14c-3.5,3.01-8.11,4.52-13.81,4.52H714.1l4.14-34.25h10.05
		C740.54,316.76,746.01,322.29,744.68,333.34z"/>
	<path class="st0" d="M903.02,290.48l-56.16,147.97h32.09l10.75-30.58h32.95l3.15,30.58h32.09l-20.42-147.97H903.02z M897.29,383.96
		l18-53.42h0.43l4.89,53.42L897.29,383.96L897.29,383.96z"/>
	<path class="st0" d="M1038.33,291.34h-47.28l-17.77,147.11h33.16l7.23-59.88h13.9c7.7,0,14.67-1,20.9-3.01s11.24-4.53,15.03-7.54
		c3.79-3.02,6.99-6.53,9.62-10.55c2.62-4.02,4.5-7.79,5.64-11.31s1.92-7.07,2.36-10.66c1.42-11.77-1.4-22.08-8.46-30.91
		C1065.6,295.76,1054.16,291.34,1038.33,291.34z M1048.02,335.07c-0.71,5.89-2.72,10.38-6.01,13.46c-3.3,3.09-8.51,4.63-15.64,4.63
		h-9.63l4.4-36.4h10.7c6.56,0,11.05,1.76,13.48,5.28C1047.74,325.55,1048.64,329.9,1048.02,335.07z"/>
	<polygon class="st0" points="1089.23,438.45 1176.29,438.45 1179.36,413.04 1125.45,413.04 1129.88,376.42 1178.22,376.42 
		1181.29,351 1132.95,351 1137.08,316.76 1189.07,316.76 1192.14,291.34 1107,291.34 	"/>
	<path class="st0" d="M1263.8,291.34h-47.71l-17.77,147.11h33.16l7.49-62.03c3.85,0,6.67,0.25,8.46,0.75
		c1.79,0.51,3.53,2.08,5.21,4.74c1.67,2.66,2.98,6,3.92,10.02c0.94,4.02,2.1,10.34,3.49,18.96l4.59,27.57h34.44
		c-1.88-6.89-4.01-16.66-6.41-29.29s-4.69-22.29-6.88-28.97c-2.19-6.68-5.08-11.09-8.67-13.25c8.99-3.59,15.78-8.15,20.37-13.68
		s7.39-12.46,8.39-20.79c1.49-12.35-1.48-22.29-8.91-29.83S1278.49,291.34,1263.8,291.34z M1272.63,333.34
		c-0.69,5.74-2.79,10.12-6.29,13.14c-3.5,3.01-8.11,4.52-13.81,4.52h-10.48l4.13-34.25h10.05
		C1268.5,316.76,1273.97,322.29,1272.63,333.34z"/>
	<polygon class="st0" points="1320.41,316.76 1353.78,316.76 1339.09,438.45 1372.25,438.45 1386.94,316.76 1420.32,316.76 
		1423.39,291.34 1323.48,291.34 	"/>
	<path class="st0" d="M1496.51,390.85c-1.75,14.5-8.62,21.75-20.6,21.75c-5.71,0-9.91-1.83-12.6-5.49
		c-2.7-3.66-3.68-8.51-2.95-14.54l12.23-101.24h-33.16l-11.73,97.14c-2.13,17.66,0.81,30.73,8.85,39.2
		c8.03,8.47,20.04,12.71,36.01,12.71c16.97,0,30.29-4.59,39.96-13.79c9.67-9.19,15.5-22.04,17.49-38.55l11.68-96.71h-33.16
		L1496.51,390.85z"/>
	<path class="st0" d="M1637.92,380.19c-2.19-6.68-5.08-11.09-8.67-13.25c8.99-3.59,15.78-8.15,20.37-13.68s7.39-12.46,8.39-20.79
		c1.49-12.35-1.48-22.29-8.91-29.83c-7.43-7.54-18.49-11.31-33.18-11.31h-47.71l-17.77,147.11h33.16l7.49-62.03
		c3.85,0,6.67,0.25,8.47,0.75c1.79,0.51,3.53,2.08,5.2,4.74c1.67,2.66,2.98,6,3.93,10.02c0.94,4.02,2.1,10.34,3.49,18.96l4.58,27.57
		h34.44c-1.88-6.89-4.02-16.66-6.41-29.29C1642.39,396.53,1640.11,386.87,1637.92,380.19z M1624.75,333.34
		c-0.69,5.74-2.79,10.12-6.29,13.14c-3.5,3.01-8.11,4.52-13.81,4.52h-10.48l4.14-34.25h10.05
		C1620.62,316.76,1626.08,322.29,1624.75,333.34z"/>
	<path class="st0" d="M1746.3,290.48h-34.44l-56.17,147.97h32.09l10.75-30.58h32.94l3.15,30.58h32.09L1746.3,290.48z
		 M1706.13,383.96l18-53.42h0.43l4.89,53.42L1706.13,383.96L1706.13,383.96z"/>
	<path class="st0" d="M202.13,225.51c0.2-0.03,0.39-0.08,0.59-0.13l0.02-0.1c9.28-53.42,15.76-100.45,15.76-114.35
		c0-11.68-4-24.94-22.44-23.91c8.61,3.8,12.95,12.66,12.95,25.18c0,15.14-7.23,65.57-15.82,115.04
		C196.05,226.5,199.03,225.92,202.13,225.51z"/>
	<path class="st0" d="M9.49,356.93c0-22.49,6.07-73.1,15.1-125.94c4.83-28.26,17.46-97.18,30.46-126.87
		c19.59-43.37,49.69-74.85,88.51-93.11C100,27.54,66.58,59.72,45.2,107.06C25.04,153.11,0,312.95,0,358.2
		c0,57.01,31.12,88.78,78.78,94.38C35.07,442.76,9.49,408.89,9.49,356.93z"/>
	<path class="st0" d="M196.86,368.93c-12.65,1.69-24.24-0.93-32.93-7.38c-5.32,3.13-11.2,5.14-17.52,5.99
		c-2.09,0.28-4.08,0.37-6.01,0.35c-4.09-0.04-7.79-0.72-11.04-2.03c-10.09-4.07-15.92-14.01-15.92-28.47
		c0-29.39,29.34-201.55,40.07-225.7c4.98-11.33,12.02-19.85,20.76-25.29c5.53-3.44,11.74-5.67,18.56-6.58
		c20.65-2.76,32.97,8.51,32.97,30.15c0,16.01-7.57,67.21-14.93,110.21c-0.03,0.19-0.06,0.38-0.1,0.56c1.48-0.28,2.99-0.52,4.49-0.73
		c12.79-1.71,24.66,0.94,33.42,7.45c9.86,7.33,15.29,19.15,15.29,33.27c0,5.48-1.46,17.86-3.67,30.71l40.09-61.62
		c9.89-55.45,17.05-113.27,17.05-137.76c0-32.91-10.84-58.6-31.36-74.29c-12.27-9.39-27.75-15.11-45.7-17.04
		c-10.92-1.17-22.76-0.94-35.35,0.75C140.18,10.14,93.39,45.29,65.99,105.94c-19.24,43.95-44.82,203.29-44.82,249.43
		c0,32.93,10.87,58.61,31.43,74.28c19.82,15.1,48.03,20.71,81.59,16.23c6.83-0.91,13.54-2.18,20.09-3.73
		c3.24-0.77,6.46-1.58,9.61-2.5l48.37-74.34C207.46,366.98,202.31,368.2,196.86,368.93z"/>
	<path class="st0" d="M203.99,315.49l0.18-0.44l0.18-0.37c2.56-5.86,8.09-37.93,8.28-44.39c-0.06,0.01-0.11,0.01-0.18,0.02
		c-2.17,0.29-3.28,0.85-4.5,3.54c-2.46,5.86-7.97,38.66-8.15,44.75c0.06-0.01,0.11-0.01,0.18-0.02
		C202.46,318.24,203.16,317.52,203.99,315.49z"/>
	<path class="st0" d="M347.25,220.4c0.95-1.73,0.63-3.3-1.24-3.05l-19.34,2.58c-2.5,0.33-3.43,1.42-4.99,3.88l-23.27,35.75
		L183.15,436.69l-17.5,26.89c-1.24,1.77-0.61,3.3,1.26,3.05l18.71-2.5c2.5-0.33,3.75-1.46,5.31-3.92l29.08-44.62l65.27-100.13
		L347.25,220.4z"/>
	<path class="st0" d="M174.7,266.56c-5.61,12.61-10.92,50.57-10.92,59.55c0,10.32,3.99,17.76,10.23,22.26
		c6.01,4.33,14.13,5.95,22.85,4.79c21.21-2.83,33.08-14.05,40.57-30.77c5.61-12.63,11.23-50.63,11.23-59.61
		c0-20.23-15.28-29.42-33.39-27.01c-4.07,0.54-7.78,1.4-11.2,2.53C189.68,243.11,180.76,253.03,174.7,266.56z M188.73,313.77
		c1.59-12.66,5.99-37.76,8.76-43.84c0.34-0.74,0.7-1.42,1.08-2.08c3.14-5.54,7.77-8.73,13.9-9.55c7.17-0.96,11.85,2.91,11.85,10.3
		c0,6.1-5.93,42.85-9.68,50.41c-2.8,6.8-7.8,10.67-14.66,11.58c-7.18,0.96-11.87-2.91-11.87-10.3
		C188.12,319.12,188.35,316.79,188.73,313.77z"/>
	<path class="st0" d="M315.74,331.18c-21.22,2.83-33.07,14.05-40.56,30.78c-5.62,12.63-10.92,50.58-10.92,59.57
		c0,20.23,15.29,29.42,33.07,27.04c21.22-2.83,33.07-14.05,40.56-30.78c5.62-12.63,11.23-50.62,11.23-59.61
		C349.13,337.96,333.84,328.76,315.74,331.18z M314.8,414.45c-2.81,6.8-7.8,10.67-14.66,11.59c-7.18,0.96-11.86-2.91-11.86-10.29
		c0-6.1,5.93-42.85,9.36-50.37c3.12-6.84,8.11-10.71,14.98-11.63c7.18-0.96,11.86,2.91,11.86,10.29
		C324.48,370.14,318.55,406.89,314.8,414.45z"/>
</g>
</svg>
