<?xml version="1.0" encoding="utf-8"?>
<!-- Generator: Adobe Illustrator 26.1.0, SVG Export Plug-In . SVG Version: 6.00 Build 0)  -->
<svg version="1.1" id="Capa_1" xmlns="http://www.w3.org/2000/svg" xmlns:xlink="http://www.w3.org/1999/xlink" x="0px" y="0px"
	 viewBox="0 0 177.7 45.1" style="enable-background:new 0 0 177.7 45.1;" xml:space="preserve">
<style type="text/css">
	.st0{fill-rule:evenodd;clip-rule:evenodd;fill:#E10012;}
	.st1{enable-background:new    ;}
	.st2{fill:#FFFFFF;}
</style>
<path class="st0" d="M5,0h167.7c2.2,0,5,2.2,5,5v35.1c0,3.2-2.8,5-5,5H5c-2.8,0-5-1.8-5-5V5C0,2.2,2.2,0,5,0z"/>
<g class="st1">
	<path class="st2" d="M39.5,32.7c-1.3,1.2-3.1,1.8-5.2,1.8c-2.6,0-4.6-0.8-6.1-2.5c-1.5-1.7-2.2-4-2.2-6.9c0-3.1,0.8-5.6,2.5-7.3
		c1.5-1.5,3.3-2.2,5.6-2.2c3,0,5.2,1,6.6,3c0.8,1.1,1.2,2.2,1.2,3.4h-3.8c-0.2-0.9-0.6-1.5-0.9-2c-0.7-0.8-1.7-1.2-3-1.2
		c-1.4,0-2.4,0.6-3.2,1.7c-0.8,1.1-1.2,2.7-1.2,4.7s0.4,3.5,1.3,4.5c0.8,1,1.9,1.5,3.2,1.5c1.3,0,2.3-0.4,3-1.3
		c0.4-0.5,0.7-1.2,1-2.1H42C41.7,29.9,40.8,31.4,39.5,32.7z"/>
	<path class="st2" d="M52.8,34.5c-2.6,0-4.5-0.7-5.9-2.1c-1.8-1.7-2.7-4.2-2.7-7.4c0-3.3,0.9-5.8,2.7-7.4c1.4-1.4,3.3-2.1,5.9-2.1
		c2.6,0,4.5,0.7,5.9,2.1c1.8,1.7,2.7,4.1,2.7,7.4c0,3.2-0.9,5.7-2.7,7.4C57.3,33.8,55.4,34.5,52.8,34.5z M56.4,29.7
		c0.9-1.1,1.3-2.7,1.3-4.7c0-2-0.4-3.6-1.3-4.7c-0.9-1.1-2.1-1.7-3.5-1.7s-2.7,0.5-3.6,1.6c-0.9,1.1-1.3,2.7-1.3,4.7
		s0.4,3.6,1.3,4.7c0.9,1.1,2.1,1.6,3.6,1.6S55.5,30.8,56.4,29.7z"/>
	<path class="st2" d="M77.4,16v3.2H72V34h-3.8V19.2h-5.4V16H77.4z"/>
	<path class="st2" d="M79.1,14.2l2.3-3.6h3.9l-3.7,3.6H79.1z M79.3,16H83v18h-3.7V16z"/>
	<path class="st2" d="M99.2,34h-14v-3.2l9.3-11.6h-9.1V16h13.7v3l-9.4,11.8h9.4V34z"/>
	<path class="st2" d="M112.3,30.3h-6.6l-1.2,3.7h-3.9l6.4-18h4.2l6.4,18h-4.1L112.3,30.3z M111.3,27.2l-2.2-7.1l-2.3,7.1H111.3z"/>
	<path class="st2" d="M119.8,16h3.8v14.8h8.9V34h-12.7V16z"/>
	<path class="st2" d="M143.1,34.5c-2.6,0-4.5-0.7-5.9-2.1c-1.8-1.7-2.7-4.2-2.7-7.4c0-3.3,0.9-5.8,2.7-7.4c1.4-1.4,3.3-2.1,5.9-2.1
		s4.5,0.7,5.9,2.1c1.8,1.7,2.7,4.1,2.7,7.4c0,3.2-0.9,5.7-2.7,7.4C147.6,33.8,145.6,34.5,143.1,34.5z M146.6,29.7
		c0.9-1.1,1.3-2.7,1.3-4.7c0-2-0.4-3.6-1.3-4.7c-0.9-1.1-2.1-1.7-3.5-1.7s-2.7,0.5-3.6,1.6s-1.3,2.7-1.3,4.7s0.4,3.6,1.3,4.7
		s2.1,1.6,3.6,1.6S145.7,30.8,146.6,29.7z"/>
</g>
</svg>
