<?xml version="1.0" encoding="utf-8"?>
<!-- Generator: Adobe Illustrator 26.0.2, SVG Export Plug-In . SVG Version: 6.00 Build 0)  -->
<svg version="1.1" id="Capa_1" xmlns="http://www.w3.org/2000/svg" xmlns:xlink="http://www.w3.org/1999/xlink" x="0px" y="0px"
	 viewBox="0 0 530.17 240.94" style="enable-background:new 0 0 530.17 240.94;" xml:space="preserve">
<style type="text/css">
	.st0{fill:#FFFFFF;}
</style>
<g>
	<g>
		<path class="st0" d="M102.51,183.93l-3.89,39.27h4.62l0.88-10.69h4.2l0.88,10.69h4.72l-3.63-39.27H102.51z M104.32,208l1.35-14.73
			c0.07-0.8,0.14-1.57,0.21-2.33c0.07-0.76,0.14-1.54,0.21-2.33h0.36c0.07,0.8,0.14,1.57,0.21,2.33c0.07,0.76,0.14,1.54,0.21,2.33
			l1.25,14.73H104.32z"/>
		<path class="st0" d="M127.77,198.97c0,1.18,0,2.11,0,2.8c0,0.69,0.02,1.37,0.05,2.02h-0.26c-0.03-0.21-0.08-0.44-0.13-0.7
			c-0.05-0.26-0.14-0.64-0.26-1.14c-0.12-0.5-0.29-1.18-0.52-2.02c-0.23-0.85-0.52-1.97-0.88-3.37c-0.36-1.4-0.82-3.13-1.37-5.19
			c-0.55-2.06-1.21-4.54-1.97-7.44h-5.29v39.27h4.2v-19.87c0-1.45,0-2.78,0-3.99c0-1.21-0.02-2.37-0.05-3.48h0.26
			c0.07,0.35,0.16,0.73,0.29,1.17c0.12,0.43,0.29,1.03,0.52,1.79c0.22,0.76,0.51,1.75,0.86,2.96c0.35,1.21,0.8,2.77,1.37,4.67
			c0.57,1.9,1.27,4.22,2.1,6.95c0.83,2.73,1.82,6,2.96,9.81h2.39v-39.27h-4.25V198.97z"/>
		<path class="st0" d="M129.93,176.85c-0.61,0.36-1.24,0.54-1.89,0.54c-0.66,0-1.19-0.09-1.61-0.29c-0.41-0.19-0.99-0.53-1.71-1.01
			c-1.11-0.73-2.33-1.09-3.68-1.09c-0.83,0-1.57,0.2-2.23,0.6c-0.66,0.4-1.16,0.91-1.5,1.53v3.53h0.21
			c0.48-0.69,1.01-1.25,1.58-1.66c0.57-0.41,1.2-0.62,1.89-0.62c0.62,0,1.13,0.06,1.53,0.18c0.4,0.12,0.84,0.37,1.32,0.75
			c0.59,0.45,1.22,0.8,1.89,1.06c0.67,0.26,1.36,0.39,2.05,0.39c0.86,0,1.63-0.16,2.31-0.49c0.67-0.33,1.25-0.89,1.74-1.69v-3.48
			h-0.26C131.08,175.91,130.53,176.48,129.93,176.85z"/>
		<path class="st0" d="M150.13,191.3c-0.1-1.21-0.24-2.16-0.41-2.85c-0.17-0.69-0.38-1.35-0.62-1.97c-0.48-1.21-1.18-2.05-2.08-2.52
			c-0.9-0.47-2.23-0.7-3.99-0.7c-1.76,0-3.1,0.23-3.99,0.7c-0.9,0.47-1.59,1.31-2.08,2.52c-0.24,0.62-0.45,1.28-0.62,1.97
			c-0.17,0.69-0.31,1.64-0.41,2.85c-0.1,1.21-0.18,2.78-0.23,4.72c-0.05,1.94-0.08,4.44-0.08,7.52c0,3.08,0.03,5.6,0.08,7.55
			c0.05,1.95,0.13,3.54,0.23,4.75c0.1,1.21,0.24,2.17,0.41,2.88c0.17,0.71,0.38,1.36,0.62,1.95c0.48,1.21,1.18,2.05,2.08,2.52
			c0.9,0.47,2.23,0.7,3.99,0.7c1.76,0,3.09-0.23,3.99-0.7c0.9-0.47,1.59-1.31,2.08-2.52c0.24-0.59,0.45-1.24,0.62-1.95
			c0.17-0.71,0.31-1.67,0.41-2.88c0.1-1.21,0.18-2.79,0.23-4.75c0.05-1.95,0.08-4.47,0.08-7.55c0-3.08-0.03-5.59-0.08-7.52
			C150.31,194.08,150.24,192.51,150.13,191.3z M145.83,209.97c-0.03,1.63-0.08,2.91-0.13,3.86c-0.05,0.95-0.11,1.67-0.18,2.15
			c-0.07,0.48-0.16,0.93-0.26,1.35c-0.17,0.62-0.42,1.06-0.73,1.3c-0.31,0.24-0.81,0.36-1.5,0.36c-0.69,0-1.19-0.12-1.5-0.36
			c-0.31-0.24-0.55-0.67-0.73-1.3c-0.1-0.41-0.2-0.86-0.28-1.35c-0.09-0.48-0.16-1.2-0.21-2.15c-0.05-0.95-0.09-2.24-0.1-3.86
			c-0.02-1.63-0.03-3.8-0.03-6.54c0-2.73,0.01-4.92,0.03-6.56c0.02-1.64,0.05-2.94,0.1-3.89c0.05-0.95,0.12-1.67,0.21-2.15
			c0.09-0.48,0.18-0.93,0.28-1.35c0.17-0.59,0.42-1.01,0.73-1.27c0.31-0.26,0.81-0.39,1.5-0.39c0.69,0,1.2,0.13,1.53,0.39
			c0.33,0.26,0.58,0.7,0.75,1.32c0.1,0.41,0.19,0.86,0.26,1.32c0.07,0.47,0.13,1.18,0.18,2.13c0.05,0.95,0.09,2.25,0.1,3.89
			c0.02,1.64,0.03,3.83,0.03,6.56C145.88,206.17,145.86,208.35,145.83,209.97z"/>
		<path class="st0" d="M167.23,207.38c-0.05-0.52-0.13-0.93-0.23-1.25c-0.1-0.31-0.23-0.62-0.36-0.93
			c-0.28-0.55-0.56-0.98-0.86-1.27c-0.29-0.29-0.75-0.67-1.37-1.12c-0.8-0.59-1.63-1.12-2.52-1.61c-0.88-0.48-1.63-0.97-2.26-1.45
			c-0.55-0.41-0.92-0.73-1.09-0.96c-0.17-0.22-0.35-0.56-0.52-1.01c-0.07-0.24-0.13-0.48-0.18-0.7c-0.05-0.22-0.09-0.5-0.1-0.83
			c-0.02-0.33-0.03-0.74-0.03-1.25c0-0.5,0-1.15,0-1.95c0-1.38,0.04-2.39,0.13-3.01c0.09-0.62,0.25-1.12,0.49-1.5
			c0.21-0.31,0.44-0.52,0.7-0.62c0.26-0.1,0.67-0.16,1.22-0.16c0.55,0,0.97,0.04,1.25,0.13c0.28,0.09,0.52,0.27,0.73,0.54
			c0.28,0.38,0.47,0.89,0.57,1.53c0.1,0.64,0.16,1.62,0.16,2.93c0,0.8-0.01,1.44-0.03,1.95c-0.02,0.5-0.06,0.93-0.13,1.27h3.89
			c0.1-0.45,0.18-1.03,0.23-1.74c0.05-0.71,0.08-1.62,0.08-2.72c0-1.76-0.09-3.12-0.26-4.07c-0.17-0.95-0.5-1.76-0.99-2.41
			c-0.45-0.59-1.08-1.05-1.89-1.4c-0.81-0.35-2.02-0.52-3.61-0.52c-1.35,0-2.39,0.12-3.11,0.36c-0.73,0.24-1.37,0.66-1.92,1.25
			c-0.62,0.69-1.06,1.58-1.32,2.67c-0.26,1.09-0.39,2.72-0.39,4.9c0,1.66,0.03,3.03,0.1,4.1c0.07,1.07,0.17,1.95,0.31,2.65
			c0.14,0.69,0.33,1.25,0.57,1.69c0.24,0.43,0.54,0.82,0.88,1.17c0.35,0.35,0.76,0.7,1.25,1.06c0.48,0.36,0.99,0.72,1.5,1.06
			c0.52,0.35,1.04,0.68,1.56,1.01c0.52,0.33,0.99,0.65,1.4,0.96c0.52,0.38,0.89,0.69,1.12,0.93c0.22,0.24,0.41,0.61,0.54,1.09
			c0.07,0.28,0.12,0.53,0.16,0.75c0.03,0.23,0.07,0.49,0.1,0.78c0.03,0.29,0.05,0.67,0.05,1.12c0,0.45,0,1,0,1.66
			c0,1.73-0.04,2.97-0.1,3.74c-0.07,0.76-0.23,1.38-0.47,1.87c-0.24,0.45-0.51,0.75-0.8,0.91c-0.29,0.16-0.79,0.23-1.48,0.23
			c-0.59,0-1.02-0.08-1.3-0.23c-0.28-0.16-0.52-0.42-0.73-0.8c-0.24-0.45-0.4-1.01-0.47-1.69c-0.07-0.67-0.1-1.77-0.1-3.29
			c0-0.73,0.01-1.33,0.03-1.82c0.02-0.48,0.06-0.92,0.13-1.3h-3.94c-0.07,0.49-0.13,1.06-0.18,1.74c-0.05,0.67-0.08,1.46-0.08,2.36
			c0,1.11,0.03,2.04,0.08,2.8c0.05,0.76,0.13,1.42,0.23,1.97c0.1,0.55,0.24,1.04,0.41,1.45c0.17,0.42,0.36,0.81,0.57,1.19
			c0.48,0.9,1.13,1.5,1.95,1.82c0.81,0.31,1.93,0.47,3.35,0.47c1.66,0,2.94-0.21,3.84-0.62c0.9-0.42,1.56-1.02,1.97-1.82
			c0.21-0.41,0.4-0.86,0.57-1.32c0.17-0.47,0.32-1.04,0.44-1.71c0.12-0.67,0.22-1.49,0.29-2.44c0.07-0.95,0.1-2.1,0.1-3.45
			c0-1.28-0.01-2.33-0.03-3.14C167.31,208.56,167.28,207.9,167.23,207.38z"/>
		<path class="st0" d="M194.18,191.71c-0.1-1.18-0.24-2.1-0.41-2.78c-0.17-0.67-0.38-1.31-0.62-1.89c-0.52-1.18-1.23-1.99-2.13-2.44
			c-0.9-0.45-2.23-0.67-3.99-0.67h-7.63v39.27h7.63c1.8,0,3.15-0.22,4.05-0.65c0.9-0.43,1.59-1.24,2.08-2.41
			c0.24-0.55,0.44-1.16,0.6-1.82c0.16-0.66,0.29-1.56,0.39-2.72c0.1-1.16,0.18-2.69,0.23-4.59c0.05-1.9,0.08-4.39,0.08-7.47
			c0-2.97-0.02-5.4-0.05-7.26C194.35,194.41,194.28,192.89,194.18,191.71z M189.74,209.66c-0.02,1.56-0.04,2.8-0.08,3.74
			c-0.04,0.93-0.1,1.64-0.18,2.13c-0.09,0.48-0.18,0.92-0.29,1.3c-0.17,0.59-0.42,0.99-0.75,1.22c-0.33,0.23-0.84,0.34-1.53,0.34
			h-2.96V188.6h2.96c0.66,0,1.15,0.12,1.48,0.36c0.33,0.24,0.6,0.66,0.8,1.25c0.14,0.38,0.24,0.82,0.31,1.32
			c0.07,0.5,0.12,1.23,0.16,2.18c0.03,0.95,0.06,2.2,0.08,3.74c0.02,1.54,0.03,3.55,0.03,6.04
			C189.77,206.05,189.76,208.1,189.74,209.66z"/>
		<polygon class="st0" points="198.95,223.2 211.04,223.2 211.04,218.32 203.51,218.32 203.51,205.41 210.99,205.41 210.99,200.95 
			203.51,200.95 203.51,188.6 211.09,188.6 211.09,183.93 198.95,183.93 		"/>
		<path class="st0" d="M227.17,183.93l-3.89,39.27h4.62l0.88-10.69h4.2l0.88,10.69h4.72l-3.63-39.27H227.17z M228.99,208l1.35-14.73
			c0.07-0.8,0.14-1.57,0.21-2.33c0.07-0.76,0.14-1.54,0.21-2.33h0.36c0.07,0.8,0.14,1.57,0.21,2.33c0.07,0.76,0.14,1.54,0.21,2.33
			l1.25,14.73H228.99z"/>
		<path class="st0" d="M255.42,207.38c-0.05-0.52-0.13-0.93-0.23-1.25c-0.1-0.31-0.23-0.62-0.36-0.93
			c-0.28-0.55-0.56-0.98-0.86-1.27c-0.29-0.29-0.75-0.67-1.37-1.12c-0.8-0.59-1.63-1.12-2.52-1.61c-0.88-0.48-1.63-0.97-2.26-1.45
			c-0.55-0.41-0.92-0.73-1.09-0.96c-0.17-0.22-0.35-0.56-0.52-1.01c-0.07-0.24-0.13-0.48-0.18-0.7c-0.05-0.22-0.09-0.5-0.1-0.83
			c-0.02-0.33-0.03-0.74-0.03-1.25c0-0.5,0-1.15,0-1.95c0-1.38,0.04-2.39,0.13-3.01c0.09-0.62,0.25-1.12,0.49-1.5
			c0.21-0.31,0.44-0.52,0.7-0.62c0.26-0.1,0.67-0.16,1.22-0.16c0.55,0,0.97,0.04,1.25,0.13c0.28,0.09,0.52,0.27,0.73,0.54
			c0.28,0.38,0.47,0.89,0.57,1.53c0.1,0.64,0.16,1.62,0.16,2.93c0,0.8-0.01,1.44-0.03,1.95c-0.02,0.5-0.06,0.93-0.13,1.27h3.89
			c0.1-0.45,0.18-1.03,0.23-1.74c0.05-0.71,0.08-1.62,0.08-2.72c0-1.76-0.09-3.12-0.26-4.07c-0.17-0.95-0.5-1.76-0.99-2.41
			c-0.45-0.59-1.08-1.05-1.89-1.4c-0.81-0.35-2.02-0.52-3.61-0.52c-1.35,0-2.39,0.12-3.11,0.36c-0.73,0.24-1.37,0.66-1.92,1.25
			c-0.62,0.69-1.06,1.58-1.32,2.67c-0.26,1.09-0.39,2.72-0.39,4.9c0,1.66,0.03,3.03,0.1,4.1c0.07,1.07,0.17,1.95,0.31,2.65
			c0.14,0.69,0.33,1.25,0.57,1.69c0.24,0.43,0.54,0.82,0.88,1.17c0.35,0.35,0.76,0.7,1.25,1.06c0.48,0.36,0.99,0.72,1.5,1.06
			c0.52,0.35,1.04,0.68,1.56,1.01c0.52,0.33,0.99,0.65,1.4,0.96c0.52,0.38,0.89,0.69,1.12,0.93c0.22,0.24,0.41,0.61,0.54,1.09
			c0.07,0.28,0.12,0.53,0.16,0.75c0.03,0.23,0.07,0.49,0.1,0.78c0.03,0.29,0.05,0.67,0.05,1.12c0,0.45,0,1,0,1.66
			c0,1.73-0.04,2.97-0.1,3.74c-0.07,0.76-0.23,1.38-0.47,1.87c-0.24,0.45-0.51,0.75-0.8,0.91c-0.29,0.16-0.79,0.23-1.48,0.23
			c-0.59,0-1.02-0.08-1.3-0.23c-0.28-0.16-0.52-0.42-0.73-0.8c-0.24-0.45-0.4-1.01-0.47-1.69c-0.07-0.67-0.1-1.77-0.1-3.29
			c0-0.73,0.01-1.33,0.03-1.82c0.02-0.48,0.06-0.92,0.13-1.3h-3.94c-0.07,0.49-0.13,1.06-0.18,1.74c-0.05,0.67-0.08,1.46-0.08,2.36
			c0,1.11,0.03,2.04,0.08,2.8c0.05,0.76,0.13,1.42,0.23,1.97c0.1,0.55,0.24,1.04,0.41,1.45c0.17,0.42,0.36,0.81,0.57,1.19
			c0.48,0.9,1.13,1.5,1.95,1.82c0.81,0.31,1.93,0.47,3.35,0.47c1.66,0,2.94-0.21,3.84-0.62c0.9-0.42,1.56-1.02,1.97-1.82
			c0.21-0.41,0.4-0.86,0.57-1.32c0.17-0.47,0.32-1.04,0.44-1.71c0.12-0.67,0.22-1.49,0.29-2.44c0.07-0.95,0.1-2.1,0.1-3.45
			c0-1.28-0.01-2.33-0.03-3.14C255.5,208.56,255.47,207.9,255.42,207.38z"/>
		<rect x="260.11" y="183.93" class="st0" width="4.72" height="39.27"/>
		<path class="st0" d="M283.02,207.38c-0.05-0.52-0.13-0.93-0.23-1.25c-0.1-0.31-0.23-0.62-0.36-0.93
			c-0.28-0.55-0.56-0.98-0.86-1.27c-0.29-0.29-0.75-0.67-1.37-1.12c-0.8-0.59-1.63-1.12-2.52-1.61c-0.88-0.48-1.63-0.97-2.26-1.45
			c-0.55-0.41-0.92-0.73-1.09-0.96c-0.17-0.22-0.35-0.56-0.52-1.01c-0.07-0.24-0.13-0.48-0.18-0.7c-0.05-0.22-0.09-0.5-0.1-0.83
			c-0.02-0.33-0.03-0.74-0.03-1.25c0-0.5,0-1.15,0-1.95c0-1.38,0.04-2.39,0.13-3.01c0.09-0.62,0.25-1.12,0.49-1.5
			c0.21-0.31,0.44-0.52,0.7-0.62c0.26-0.1,0.67-0.16,1.22-0.16c0.55,0,0.97,0.04,1.25,0.13c0.28,0.09,0.52,0.27,0.73,0.54
			c0.28,0.38,0.47,0.89,0.57,1.53c0.1,0.64,0.16,1.62,0.16,2.93c0,0.8-0.01,1.44-0.03,1.95c-0.02,0.5-0.06,0.93-0.13,1.27h3.89
			c0.1-0.45,0.18-1.03,0.23-1.74c0.05-0.71,0.08-1.62,0.08-2.72c0-1.76-0.09-3.12-0.26-4.07c-0.17-0.95-0.5-1.76-0.99-2.41
			c-0.45-0.59-1.08-1.05-1.89-1.4c-0.81-0.35-2.02-0.52-3.61-0.52c-1.35,0-2.39,0.12-3.11,0.36c-0.73,0.24-1.37,0.66-1.92,1.25
			c-0.62,0.69-1.06,1.58-1.32,2.67c-0.26,1.09-0.39,2.72-0.39,4.9c0,1.66,0.03,3.03,0.1,4.1c0.07,1.07,0.17,1.95,0.31,2.65
			c0.14,0.69,0.33,1.25,0.57,1.69c0.24,0.43,0.54,0.82,0.88,1.17c0.35,0.35,0.76,0.7,1.25,1.06c0.48,0.36,0.99,0.72,1.5,1.06
			c0.52,0.35,1.04,0.68,1.56,1.01c0.52,0.33,0.99,0.65,1.4,0.96c0.52,0.38,0.89,0.69,1.12,0.93c0.22,0.24,0.41,0.61,0.54,1.09
			c0.07,0.28,0.12,0.53,0.16,0.75c0.03,0.23,0.07,0.49,0.1,0.78c0.03,0.29,0.05,0.67,0.05,1.12c0,0.45,0,1,0,1.66
			c0,1.73-0.04,2.97-0.1,3.74c-0.07,0.76-0.23,1.38-0.47,1.87c-0.24,0.45-0.51,0.75-0.8,0.91c-0.29,0.16-0.79,0.23-1.48,0.23
			c-0.59,0-1.02-0.08-1.3-0.23c-0.28-0.16-0.52-0.42-0.73-0.8c-0.24-0.45-0.4-1.01-0.47-1.69c-0.07-0.67-0.1-1.77-0.1-3.29
			c0-0.73,0.01-1.33,0.03-1.82c0.02-0.48,0.06-0.92,0.13-1.3h-3.94c-0.07,0.49-0.13,1.06-0.18,1.74c-0.05,0.67-0.08,1.46-0.08,2.36
			c0,1.11,0.03,2.04,0.08,2.8c0.05,0.76,0.13,1.42,0.23,1.97c0.1,0.55,0.24,1.04,0.41,1.45c0.17,0.42,0.36,0.81,0.57,1.19
			c0.48,0.9,1.13,1.5,1.95,1.82c0.81,0.31,1.93,0.47,3.35,0.47c1.66,0,2.94-0.21,3.84-0.62c0.9-0.42,1.56-1.02,1.97-1.82
			c0.21-0.41,0.4-0.86,0.57-1.32c0.17-0.47,0.32-1.04,0.44-1.71c0.12-0.67,0.22-1.49,0.29-2.44c0.07-0.95,0.1-2.1,0.1-3.45
			c0-1.28-0.01-2.33-0.03-3.14C283.1,208.56,283.07,207.9,283.02,207.38z"/>
		<polygon class="st0" points="285.84,188.6 290.72,188.6 290.72,223.2 295.34,223.2 295.34,188.6 300.16,188.6 300.16,183.93 
			285.84,183.93 		"/>
		<polygon class="st0" points="304.11,223.2 316.19,223.2 316.19,218.32 308.67,218.32 308.67,205.41 316.14,205.41 316.14,200.95 
			308.67,200.95 308.67,188.6 316.25,188.6 316.25,183.93 304.11,183.93 		"/>
		<path class="st0" d="M331.55,198.97c0,1.18,0,2.11,0,2.8c0,0.69,0.02,1.37,0.05,2.02h-0.26c-0.03-0.21-0.08-0.44-0.13-0.7
			c-0.05-0.26-0.14-0.64-0.26-1.14c-0.12-0.5-0.29-1.18-0.52-2.02c-0.23-0.85-0.52-1.97-0.88-3.37c-0.36-1.4-0.82-3.13-1.37-5.19
			c-0.55-2.06-1.21-4.54-1.97-7.44h-5.29v39.27h4.2v-19.87c0-1.45,0-2.78,0-3.99c0-1.21-0.02-2.37-0.05-3.48h0.26
			c0.07,0.35,0.16,0.73,0.29,1.17c0.12,0.43,0.29,1.03,0.52,1.79c0.22,0.76,0.51,1.75,0.86,2.96c0.35,1.21,0.8,2.77,1.37,4.67
			c0.57,1.9,1.27,4.22,2.1,6.95c0.83,2.73,1.82,6,2.96,9.81h2.39v-39.27h-4.25V198.97z"/>
		<path class="st0" d="M349.97,208.16c0.03,0.52,0.05,1.02,0.05,1.5c0,0.48,0,1.02,0,1.61c0,1.21-0.04,2.27-0.13,3.19
			c-0.09,0.92-0.22,1.72-0.39,2.41c-0.17,0.69-0.42,1.22-0.75,1.58c-0.33,0.36-0.8,0.54-1.43,0.54c-0.8,0-1.36-0.13-1.69-0.39
			c-0.33-0.26-0.58-0.68-0.75-1.27c-0.1-0.41-0.2-0.9-0.28-1.45c-0.09-0.55-0.16-1.33-0.21-2.33c-0.05-1-0.09-2.33-0.1-3.99
			c-0.02-1.66-0.03-3.79-0.03-6.38c0-2.56,0.01-4.64,0.03-6.25c0.02-1.61,0.05-2.9,0.1-3.86c0.05-0.97,0.12-1.7,0.21-2.21
			c0.09-0.5,0.18-0.96,0.28-1.37c0.17-0.62,0.42-1.05,0.73-1.3c0.31-0.24,0.81-0.36,1.5-0.36c0.55,0,0.99,0.07,1.3,0.21
			c0.31,0.14,0.57,0.43,0.78,0.88c0.24,0.48,0.42,1.21,0.54,2.18c0.12,0.97,0.18,2.25,0.18,3.84c0,0.86,0,1.5,0,1.92
			c0,0.41-0.02,0.9-0.05,1.45h4.36c0.03-0.59,0.06-1.14,0.08-1.66c0.02-0.52,0.03-1.12,0.03-1.82c0-2.56-0.19-4.7-0.57-6.43
			c-0.38-1.73-0.92-2.94-1.61-3.63c-0.55-0.55-1.21-0.94-1.97-1.17c-0.76-0.22-1.78-0.34-3.06-0.34c-1.83,0-3.17,0.24-4.02,0.73
			c-0.85,0.48-1.51,1.3-2,2.44c-0.14,0.35-0.29,0.76-0.47,1.25c-0.17,0.48-0.33,1.3-0.47,2.44c-0.14,1.14-0.25,2.74-0.34,4.8
			c-0.09,2.06-0.13,4.83-0.13,8.33c0,3.04,0.03,5.55,0.08,7.52c0.05,1.97,0.13,3.6,0.23,4.88c0.1,1.28,0.24,2.3,0.41,3.06
			c0.17,0.76,0.38,1.42,0.62,1.97c0.48,1.21,1.19,2.05,2.13,2.52c0.93,0.47,2.32,0.7,4.15,0.7c1.38,0,2.52-0.25,3.42-0.75
			c0.9-0.5,1.62-1.26,2.15-2.28c0.54-1.02,0.92-2.29,1.14-3.81c0.22-1.52,0.34-3.3,0.34-5.34c0-0.59,0-1.18,0-1.76
			c0-0.59-0.04-1.18-0.1-1.76H349.97z"/>
		<rect x="358.58" y="183.93" class="st0" width="4.72" height="39.27"/>
		<path class="st0" d="M370.82,183.93l-3.89,39.27h4.62l0.88-10.69h4.2l0.88,10.69h4.72l-3.63-39.27H370.82z M372.64,208l1.35-14.73
			c0.07-0.8,0.14-1.57,0.21-2.33c0.07-0.76,0.14-1.54,0.21-2.33h0.36c0.07,0.8,0.14,1.57,0.21,2.33c0.07,0.76,0.14,1.54,0.21,2.33
			l1.25,14.73H372.64z"/>
		<path class="st0" d="M403.43,196.04c-0.29,3.37-0.54,6.23-0.73,8.59c-0.19,2.35-0.35,4.26-0.47,5.73
			c-0.12,1.47-0.23,2.66-0.31,3.58c-0.09,0.92-0.15,1.63-0.18,2.15c-0.04,0.52-0.05,0.99-0.05,1.4h-0.36
			c-0.03-0.42-0.06-0.88-0.08-1.4c-0.02-0.52-0.06-1.24-0.13-2.15c-0.07-0.92-0.17-2.11-0.31-3.58c-0.14-1.47-0.3-3.38-0.49-5.73
			c-0.19-2.35-0.43-5.21-0.73-8.59c-0.29-3.37-0.63-7.41-1.01-12.11h-4.93l4.1,39.27h7.26l4.25-39.27h-4.82
			C404.06,188.63,403.72,192.67,403.43,196.04z"/>
		<rect x="412.95" y="183.93" class="st0" width="4.72" height="39.27"/>
		<path class="st0" d="M425.19,183.93l-3.89,39.27h4.62l0.88-10.69h4.2l0.88,10.69h4.72l-3.63-39.27H425.19z M427,208l1.35-14.73
			c0.07-0.8,0.14-1.57,0.21-2.33c0.07-0.76,0.14-1.54,0.21-2.33h0.36c0.07,0.8,0.14,1.57,0.21,2.33c0.07,0.76,0.14,1.54,0.21,2.33
			l1.25,14.73H427z"/>
		<polygon class="st0" points="444.75,183.93 440.18,183.93 440.18,223.2 451.75,223.2 451.75,218.32 444.75,218.32 		"/>
		<path class="st0" d="M151.82,152.25h5.46l1.04-12.64h4.97l1.04,12.64h5.58l-4.3-46.45h-9.2L151.82,152.25z M160.17,116.85
			c0.08-0.94,0.16-1.86,0.25-2.76c0.08-0.9,0.16-1.82,0.25-2.76h0.43c0.08,0.94,0.16,1.86,0.25,2.76c0.08,0.9,0.16,1.82,0.25,2.76
			l1.47,17.42h-4.48L160.17,116.85z"/>
		<path class="st0" d="M176.58,99.98c0.67-0.49,1.42-0.74,2.24-0.74c0.74,0,1.34,0.07,1.81,0.21c0.47,0.14,0.99,0.44,1.56,0.89
			c0.69,0.53,1.44,0.95,2.24,1.26c0.8,0.31,1.6,0.46,2.42,0.46c1.02,0,1.93-0.19,2.73-0.58c0.8-0.39,1.48-1.05,2.06-1.99v-4.11
			h-0.31c-0.57,0.94-1.22,1.63-1.93,2.06c-0.72,0.43-1.46,0.64-2.24,0.64c-0.78,0-1.41-0.11-1.9-0.34c-0.49-0.22-1.17-0.62-2.02-1.2
			c-1.31-0.86-2.76-1.29-4.36-1.29c-0.98,0-1.86,0.24-2.64,0.71c-0.78,0.47-1.37,1.07-1.78,1.81v4.17h0.25
			C175.28,101.12,175.9,100.47,176.58,99.98z"/>
		<path class="st0" d="M179.83,121.3c0.14,0.51,0.35,1.22,0.61,2.12c0.27,0.9,0.6,2.07,1.01,3.5c0.41,1.43,0.95,3.27,1.63,5.52
			c0.68,2.25,1.5,4.99,2.48,8.22c0.98,3.23,2.15,7.1,3.5,11.6h2.82V105.8h-5.03v17.79c0,1.39,0,2.5,0,3.31
			c0,0.82,0.02,1.62,0.06,2.39h-0.31c-0.04-0.25-0.09-0.52-0.15-0.83c-0.06-0.31-0.16-0.76-0.31-1.35
			c-0.14-0.59-0.35-1.39-0.61-2.39c-0.27-1-0.61-2.33-1.04-3.99c-0.43-1.66-0.97-3.7-1.63-6.14c-0.65-2.43-1.43-5.37-2.33-8.8h-6.26
			v46.45h4.97v-23.5c0-1.72,0-3.29,0-4.72c0-1.43-0.02-2.8-0.06-4.11h0.31C179.57,120.33,179.69,120.79,179.83,121.3z"/>
		<path class="st0" d="M213.36,111.14c-0.21-0.82-0.45-1.6-0.74-2.33c-0.57-1.43-1.39-2.42-2.45-2.98
			c-1.06-0.55-2.64-0.83-4.72-0.83c-2.09,0-3.66,0.28-4.72,0.83c-1.06,0.55-1.88,1.54-2.45,2.98c-0.29,0.74-0.53,1.51-0.74,2.33
			c-0.21,0.82-0.37,1.94-0.49,3.37c-0.12,1.43-0.21,3.29-0.28,5.58c-0.06,2.29-0.09,5.26-0.09,8.9c0,3.64,0.03,6.62,0.09,8.93
			c0.06,2.31,0.15,4.18,0.28,5.61c0.12,1.43,0.29,2.57,0.49,3.41c0.2,0.84,0.45,1.61,0.74,2.3c0.57,1.43,1.39,2.42,2.45,2.98
			c1.06,0.55,2.64,0.83,4.72,0.83c2.09,0,3.66-0.28,4.72-0.83c1.06-0.55,1.88-1.54,2.45-2.98c0.29-0.7,0.53-1.46,0.74-2.3
			c0.2-0.84,0.37-1.97,0.49-3.41c0.12-1.43,0.21-3.3,0.28-5.61c0.06-2.31,0.09-5.29,0.09-8.93c0-3.64-0.03-6.61-0.09-8.9
			c-0.06-2.29-0.15-4.15-0.28-5.58C213.73,113.09,213.56,111.96,213.36,111.14z M208.76,136.6c-0.04,1.92-0.09,3.45-0.15,4.57
			c-0.06,1.13-0.13,1.97-0.21,2.55c-0.08,0.57-0.18,1.1-0.31,1.6c-0.21,0.74-0.49,1.25-0.86,1.53c-0.37,0.29-0.96,0.43-1.78,0.43
			c-0.82,0-1.41-0.14-1.78-0.43c-0.37-0.29-0.65-0.8-0.86-1.53c-0.12-0.49-0.24-1.02-0.34-1.6c-0.1-0.57-0.18-1.42-0.25-2.55
			c-0.06-1.12-0.1-2.65-0.12-4.57c-0.02-1.92-0.03-4.5-0.03-7.73c0-3.23,0.01-5.82,0.03-7.76c0.02-1.94,0.06-3.48,0.12-4.6
			c0.06-1.12,0.14-1.97,0.25-2.55c0.1-0.57,0.21-1.1,0.34-1.6c0.2-0.7,0.49-1.2,0.86-1.5c0.37-0.31,0.96-0.46,1.78-0.46
			c0.82,0,1.42,0.15,1.81,0.46c0.39,0.31,0.68,0.83,0.89,1.56c0.12,0.49,0.22,1.01,0.31,1.56c0.08,0.55,0.15,1.39,0.21,2.52
			c0.06,1.13,0.1,2.66,0.12,4.6c0.02,1.94,0.03,4.53,0.03,7.76C208.82,132.11,208.8,134.68,208.76,136.6z"/>
		<path class="st0" d="M223.42,136.73h-4.66c-0.08,0.57-0.15,1.26-0.21,2.06c-0.06,0.8-0.09,1.73-0.09,2.79
			c0,1.31,0.03,2.41,0.09,3.31c0.06,0.9,0.15,1.68,0.28,2.33c0.12,0.65,0.29,1.23,0.49,1.72c0.2,0.49,0.43,0.96,0.67,1.41
			c0.57,1.06,1.34,1.78,2.3,2.15c0.96,0.37,2.28,0.55,3.96,0.55c1.96,0,3.48-0.25,4.54-0.74c1.06-0.49,1.84-1.21,2.33-2.15
			c0.25-0.49,0.47-1.01,0.68-1.56c0.2-0.55,0.38-1.23,0.52-2.03c0.14-0.8,0.25-1.76,0.34-2.88c0.08-1.12,0.12-2.48,0.12-4.08
			c0-1.51-0.01-2.75-0.03-3.71c-0.02-0.96-0.06-1.75-0.12-2.36c-0.06-0.61-0.15-1.1-0.28-1.47c-0.12-0.37-0.27-0.74-0.43-1.1
			c-0.33-0.65-0.67-1.16-1.01-1.5c-0.35-0.35-0.89-0.79-1.63-1.32c-0.94-0.7-1.93-1.33-2.98-1.9c-1.04-0.57-1.93-1.14-2.67-1.72
			c-0.65-0.49-1.08-0.87-1.29-1.13c-0.21-0.27-0.41-0.66-0.61-1.2c-0.08-0.29-0.15-0.56-0.21-0.83c-0.06-0.27-0.1-0.59-0.12-0.98
			c-0.02-0.39-0.03-0.88-0.03-1.47c0-0.59,0-1.36,0-2.3c0-1.64,0.05-2.82,0.15-3.56c0.1-0.74,0.3-1.33,0.58-1.78
			c0.25-0.37,0.52-0.61,0.83-0.74c0.31-0.12,0.79-0.18,1.44-0.18c0.65,0,1.14,0.05,1.47,0.15c0.33,0.1,0.61,0.32,0.86,0.64
			c0.33,0.45,0.55,1.05,0.68,1.81c0.12,0.76,0.18,1.91,0.18,3.47c0,0.94-0.01,1.71-0.03,2.3c-0.02,0.59-0.07,1.09-0.15,1.5h4.6
			c0.12-0.53,0.21-1.22,0.28-2.06c0.06-0.84,0.09-1.91,0.09-3.22c0-2.09-0.1-3.69-0.31-4.82c-0.21-1.12-0.59-2.08-1.17-2.85
			c-0.53-0.7-1.28-1.25-2.24-1.66c-0.96-0.41-2.38-0.61-4.26-0.61c-1.6,0-2.82,0.14-3.68,0.43c-0.86,0.29-1.62,0.78-2.27,1.47
			c-0.74,0.82-1.26,1.87-1.56,3.16c-0.31,1.29-0.46,3.22-0.46,5.8c0,1.96,0.04,3.58,0.12,4.85c0.08,1.27,0.2,2.31,0.37,3.13
			c0.16,0.82,0.39,1.48,0.67,1.99c0.29,0.51,0.63,0.97,1.04,1.38c0.41,0.41,0.9,0.83,1.47,1.26c0.57,0.43,1.17,0.85,1.78,1.26
			c0.61,0.41,1.23,0.81,1.84,1.2c0.61,0.39,1.17,0.77,1.66,1.13c0.61,0.45,1.05,0.82,1.32,1.1c0.27,0.29,0.48,0.72,0.64,1.29
			c0.08,0.33,0.14,0.62,0.18,0.89c0.04,0.27,0.08,0.57,0.12,0.92c0.04,0.35,0.06,0.79,0.06,1.32c0,0.53,0,1.19,0,1.96
			c0,2.05-0.04,3.52-0.12,4.42c-0.08,0.9-0.27,1.64-0.55,2.21c-0.29,0.53-0.6,0.89-0.95,1.07c-0.35,0.18-0.93,0.28-1.75,0.28
			c-0.7,0-1.21-0.09-1.53-0.28c-0.33-0.18-0.61-0.5-0.86-0.95c-0.29-0.53-0.47-1.2-0.55-1.99c-0.08-0.8-0.12-2.1-0.12-3.9
			c0-0.86,0.01-1.57,0.03-2.15C223.29,137.69,223.34,137.18,223.42,136.73z"/>
		<path class="st0" d="M267.11,111.73c-0.21-0.8-0.45-1.54-0.74-2.24c-0.61-1.39-1.45-2.35-2.52-2.88c-1.06-0.53-2.64-0.8-4.72-0.8
			h-9.02v46.45h9.02c2.13,0,3.72-0.26,4.79-0.77c1.06-0.51,1.88-1.46,2.45-2.85c0.29-0.65,0.52-1.37,0.71-2.15
			c0.18-0.78,0.34-1.85,0.46-3.22c0.12-1.37,0.21-3.18,0.28-5.43c0.06-2.25,0.09-5.19,0.09-8.84c0-3.52-0.02-6.38-0.06-8.59
			c-0.04-2.21-0.12-4.01-0.25-5.4C267.47,113.62,267.31,112.52,267.11,111.73z M262.35,136.24c-0.02,1.84-0.05,3.31-0.09,4.42
			c-0.04,1.1-0.11,1.94-0.21,2.52c-0.1,0.57-0.21,1.08-0.34,1.53c-0.21,0.7-0.5,1.18-0.89,1.44c-0.39,0.27-0.99,0.4-1.81,0.4h-3.5
			v-35.22h3.5c0.78,0,1.36,0.14,1.75,0.43c0.39,0.29,0.71,0.78,0.95,1.47c0.16,0.45,0.29,0.97,0.37,1.56
			c0.08,0.59,0.14,1.45,0.18,2.58c0.04,1.13,0.07,2.6,0.09,4.42c0.02,1.82,0.03,4.2,0.03,7.15
			C262.38,131.96,262.37,134.4,262.35,136.24z"/>
		<polygon class="st0" points="287.17,111.33 287.17,105.8 272.81,105.8 272.81,152.25 287.11,152.25 287.11,146.48 278.21,146.48 
			278.21,131.21 287.05,131.21 287.05,125.93 278.21,125.93 278.21,111.33 		"/>
		<path class="st0" d="M314.23,119.98h5.15c0.04-0.33,0.06-0.65,0.06-0.98c0-0.33,0-0.8,0-1.41c0-1.39-0.06-2.82-0.18-4.29
			c-0.12-1.47-0.45-2.9-0.98-4.29c-0.45-1.27-1.21-2.25-2.27-2.95c-1.06-0.7-2.74-1.04-5.03-1.04c-2.05,0-3.61,0.28-4.69,0.83
			c-1.08,0.55-1.93,1.61-2.55,3.16c-0.25,0.61-0.47,1.31-0.68,2.09c-0.21,0.78-0.37,1.87-0.49,3.28c-0.12,1.41-0.21,3.24-0.28,5.49
			c-0.06,2.25-0.09,5.17-0.09,8.77c0,3.76,0.03,6.81,0.09,9.14c0.06,2.33,0.15,4.23,0.28,5.71c0.12,1.47,0.29,2.63,0.49,3.47
			c0.2,0.84,0.45,1.61,0.74,2.3c0.57,1.43,1.39,2.42,2.45,2.98c1.06,0.55,2.64,0.83,4.72,0.83c2.09,0,3.66-0.28,4.72-0.83
			c1.06-0.55,1.88-1.54,2.45-2.98c0.25-0.61,0.46-1.27,0.64-1.96c0.18-0.7,0.35-1.6,0.49-2.7c0.14-1.1,0.25-2.49,0.31-4.17
			c0.06-1.68,0.09-3.78,0.09-6.32c0-1.84-0.01-3.37-0.03-4.6c-0.02-1.23-0.05-2.23-0.09-3.01h-9.63v5.28h4.66
			c0.04,0.37,0.06,0.82,0.06,1.35c0,0.53,0,1.27,0,2.21c0,1.47-0.02,2.74-0.06,3.8c-0.04,1.06-0.09,1.97-0.15,2.73
			c-0.06,0.76-0.14,1.41-0.25,1.96c-0.1,0.55-0.21,1.05-0.34,1.5c-0.21,0.74-0.51,1.26-0.92,1.56c-0.41,0.31-1.02,0.46-1.84,0.46
			c-0.94,0-1.59-0.15-1.93-0.46c-0.35-0.31-0.62-0.85-0.83-1.63c-0.12-0.49-0.24-1.03-0.34-1.63c-0.1-0.59-0.19-1.47-0.28-2.64
			c-0.08-1.17-0.14-2.73-0.18-4.69c-0.04-1.96-0.06-4.54-0.06-7.73c0-3.03,0.02-5.48,0.06-7.36c0.04-1.88,0.09-3.39,0.15-4.54
			c0.06-1.14,0.13-1.99,0.21-2.55c0.08-0.55,0.18-1.03,0.31-1.44c0.2-0.86,0.51-1.45,0.92-1.78c0.41-0.33,1.02-0.49,1.84-0.49
			c0.94,0,1.6,0.19,1.99,0.58c0.39,0.39,0.66,0.93,0.83,1.63c0.2,0.94,0.34,1.81,0.4,2.61c0.06,0.8,0.09,1.59,0.09,2.36
			c0,0.61,0,1.09,0,1.44C314.29,119.37,314.27,119.69,314.23,119.98z"/>
		<path class="st0" d="M322.75,152.25h5.46l1.04-12.64h4.97l1.04,12.64h5.58l-4.3-46.45h-9.2L322.75,152.25z M331.1,116.85
			c0.08-0.94,0.16-1.86,0.25-2.76c0.08-0.9,0.16-1.82,0.25-2.76h0.43c0.08,0.94,0.16,1.86,0.25,2.76c0.08,0.9,0.16,1.82,0.25,2.76
			l1.47,17.42h-4.48L331.1,116.85z"/>
		<path class="st0" d="M360.4,129.36c0.39-0.37,0.73-0.9,1.01-1.6c0.16-0.41,0.31-0.86,0.43-1.35c0.12-0.49,0.23-1.09,0.34-1.81
			c0.1-0.72,0.17-1.57,0.21-2.58c0.04-1,0.06-2.24,0.06-3.71c0-1.43-0.03-2.69-0.09-3.77c-0.06-1.08-0.17-2.03-0.34-2.85
			c-0.16-0.82-0.38-1.52-0.64-2.12c-0.27-0.59-0.58-1.14-0.95-1.63c-0.57-0.74-1.25-1.28-2.02-1.63c-0.78-0.35-1.88-0.52-3.31-0.52
			h-9.82v46.45h5.4v-19.63h2.58c0.82,0,1.4,0.18,1.75,0.55c0.35,0.37,0.62,1.19,0.83,2.45c0.2,1.56,0.36,3.12,0.46,4.69
			c0.1,1.58,0.19,3.14,0.28,4.69c0.08,1.39,0.15,2.51,0.21,3.34c0.06,0.84,0.12,1.5,0.18,1.99c0.06,0.49,0.13,0.87,0.21,1.14
			c0.08,0.27,0.18,0.52,0.31,0.77h5.58v-0.25c-0.21-0.61-0.36-1.25-0.46-1.9c-0.1-0.65-0.19-1.45-0.28-2.39
			c-0.12-2.37-0.28-4.65-0.46-6.84c-0.18-2.19-0.42-4.35-0.71-6.47c-0.16-1.27-0.44-2.18-0.83-2.73c-0.39-0.55-0.79-0.93-1.2-1.13
			v-0.31C359.59,130.02,360.01,129.73,360.4,129.36z M356.9,121.6c-0.02,0.84-0.06,1.53-0.12,2.09c-0.06,0.55-0.13,0.99-0.21,1.32
			c-0.08,0.33-0.21,0.65-0.37,0.98c-0.33,0.7-0.74,1.15-1.23,1.35c-0.49,0.21-1.1,0.31-1.84,0.31h-2.45V111.2h3.44
			c0.94,0,1.66,0.39,2.15,1.17c0.12,0.21,0.23,0.44,0.34,0.71c0.1,0.27,0.17,0.61,0.21,1.04c0.04,0.43,0.07,0.98,0.09,1.66
			c0.02,0.68,0.03,1.52,0.03,2.55C356.93,119.67,356.92,120.77,356.9,121.6z"/>
		<path class="st0" d="M371.16,105.8l-4.6,46.45h5.46l1.04-12.64h4.97l1.04,12.64h5.58l-4.3-46.45H371.16z M373.31,134.27l1.6-17.42
			c0.08-0.94,0.16-1.86,0.25-2.76c0.08-0.9,0.16-1.82,0.25-2.76h0.43c0.08,0.94,0.16,1.86,0.25,2.76c0.08,0.9,0.16,1.82,0.25,2.76
			l1.47,17.42H373.31z"/>
		<path class="st0" d="M393.99,128.75c0-1.72,0-3.29,0-4.72c0-1.43-0.02-2.8-0.06-4.11h0.31c0.08,0.41,0.19,0.87,0.34,1.38
			c0.14,0.51,0.35,1.22,0.61,2.12c0.27,0.9,0.6,2.07,1.01,3.5c0.41,1.43,0.95,3.27,1.63,5.52c0.68,2.25,1.5,4.99,2.48,8.22
			c0.98,3.23,2.15,7.1,3.5,11.6h2.82V105.8h-5.03v17.79c0,1.39,0,2.5,0,3.31c0,0.82,0.02,1.62,0.06,2.39h-0.31
			c-0.04-0.25-0.09-0.52-0.15-0.83c-0.06-0.31-0.16-0.76-0.31-1.35c-0.14-0.59-0.35-1.39-0.61-2.39c-0.27-1-0.61-2.33-1.04-3.99
			c-0.43-1.66-0.97-3.7-1.63-6.14c-0.65-2.43-1.43-5.37-2.33-8.8h-6.26v46.45h4.97V128.75z"/>
		<polygon class="st0" points="416.44,152.25 421.9,152.25 421.9,111.33 427.61,111.33 427.61,105.8 410.67,105.8 410.67,111.33 
			416.44,111.33 		"/>
		<rect x="431.84" y="105.8" class="st0" width="5.58" height="46.45"/>
		<polygon class="st0" points="432.15,103.84 436.2,103.84 442.03,93.53 442.03,93.23 437.06,93.23 432.15,103.6 		"/>
		<path class="st0" d="M446.87,105.8l-4.6,46.45h5.46l1.04-12.64h4.97l1.04,12.64h5.58l-4.3-46.45H446.87z M449.02,134.27l1.6-17.42
			c0.08-0.94,0.16-1.86,0.25-2.76c0.08-0.9,0.16-1.82,0.25-2.76h0.43c0.08,0.94,0.16,1.86,0.25,2.76c0.08,0.9,0.16,1.82,0.25,2.76
			l1.47,17.42H449.02z"/>
		<path class="st0" d="M186.64,45.81c0.16,0.82,0.39,1.48,0.67,1.99c0.28,0.51,0.63,0.97,1.04,1.38c0.41,0.41,0.9,0.83,1.47,1.25
			c0.57,0.43,1.16,0.85,1.77,1.25c0.61,0.41,1.22,0.81,1.83,1.19c0.61,0.39,1.16,0.76,1.65,1.13c0.61,0.45,1.05,0.82,1.31,1.1
			c0.26,0.29,0.48,0.71,0.64,1.28c0.08,0.33,0.14,0.62,0.18,0.89c0.04,0.27,0.08,0.57,0.12,0.92c0.04,0.35,0.06,0.79,0.06,1.31
			c0,0.53,0,1.18,0,1.96c0,2.04-0.04,3.51-0.12,4.4c-0.08,0.9-0.27,1.63-0.55,2.2c-0.29,0.53-0.6,0.89-0.95,1.07
			c-0.35,0.18-0.93,0.28-1.74,0.28c-0.69,0-1.2-0.09-1.53-0.28c-0.33-0.18-0.61-0.5-0.86-0.95c-0.29-0.53-0.47-1.19-0.55-1.99
			c-0.08-0.79-0.12-2.09-0.12-3.88c0-0.86,0.01-1.57,0.03-2.14c0.02-0.57,0.07-1.08,0.15-1.53h-4.65c-0.08,0.57-0.15,1.25-0.21,2.05
			c-0.06,0.79-0.09,1.72-0.09,2.78c0,1.31,0.03,2.41,0.09,3.3c0.06,0.9,0.15,1.67,0.28,2.32c0.12,0.65,0.28,1.22,0.49,1.71
			c0.2,0.49,0.43,0.96,0.67,1.41c0.57,1.06,1.33,1.77,2.29,2.14c0.96,0.37,2.27,0.55,3.94,0.55c1.96,0,3.46-0.24,4.52-0.73
			c1.06-0.49,1.83-1.2,2.32-2.14c0.24-0.49,0.47-1.01,0.67-1.56c0.2-0.55,0.38-1.22,0.52-2.02c0.14-0.79,0.25-1.75,0.34-2.87
			c0.08-1.12,0.12-2.48,0.12-4.07c0-1.51-0.01-2.74-0.03-3.7c-0.02-0.96-0.06-1.74-0.12-2.35c-0.06-0.61-0.15-1.1-0.28-1.47
			c-0.12-0.37-0.27-0.73-0.43-1.1c-0.33-0.65-0.66-1.15-1.01-1.5c-0.35-0.35-0.89-0.78-1.62-1.31c-0.94-0.69-1.93-1.32-2.97-1.9
			c-1.04-0.57-1.93-1.14-2.66-1.71c-0.65-0.49-1.08-0.87-1.28-1.13c-0.2-0.26-0.41-0.66-0.61-1.19c-0.08-0.28-0.15-0.56-0.21-0.83
			c-0.06-0.26-0.1-0.59-0.12-0.98c-0.02-0.39-0.03-0.88-0.03-1.47c0-0.59,0-1.35,0-2.29c0-1.63,0.05-2.81,0.15-3.55
			c0.1-0.73,0.3-1.32,0.58-1.77c0.24-0.37,0.52-0.61,0.83-0.73c0.31-0.12,0.78-0.18,1.44-0.18c0.65,0,1.14,0.05,1.47,0.15
			c0.33,0.1,0.61,0.32,0.86,0.64c0.33,0.45,0.55,1.05,0.67,1.8c0.12,0.75,0.18,1.91,0.18,3.45c0,0.94-0.01,1.7-0.03,2.29
			c-0.02,0.59-0.07,1.09-0.15,1.5h4.59c0.12-0.53,0.21-1.21,0.28-2.05c0.06-0.83,0.09-1.9,0.09-3.21c0-2.08-0.1-3.68-0.31-4.8
			c-0.2-1.12-0.59-2.07-1.16-2.84c-0.53-0.69-1.27-1.24-2.23-1.65c-0.96-0.41-2.38-0.61-4.25-0.61c-1.59,0-2.81,0.14-3.67,0.43
			c-0.86,0.29-1.61,0.77-2.26,1.47c-0.73,0.82-1.25,1.87-1.56,3.15c-0.31,1.28-0.46,3.21-0.46,5.78c0,1.96,0.04,3.57,0.12,4.83
			C186.36,43.96,186.48,45,186.64,45.81z"/>
		<polygon class="st0" points="221.37,68.38 212.51,68.38 212.51,53.15 221.31,53.15 221.31,47.89 212.51,47.89 212.51,33.34 
			221.44,33.34 221.44,27.84 207.13,27.84 207.13,74.13 221.37,74.13 		"/>
		<path class="st0" d="M231.71,54.56h2.57c0.82,0,1.4,0.18,1.74,0.55c0.35,0.37,0.62,1.18,0.83,2.45c0.2,1.55,0.36,3.11,0.46,4.68
			c0.1,1.57,0.19,3.13,0.28,4.68c0.08,1.39,0.15,2.5,0.21,3.33c0.06,0.84,0.12,1.5,0.18,1.99c0.06,0.49,0.13,0.87,0.21,1.13
			c0.08,0.27,0.18,0.52,0.31,0.76h5.56v-0.24c-0.2-0.61-0.36-1.24-0.46-1.9c-0.1-0.65-0.19-1.45-0.28-2.38
			c-0.12-2.36-0.28-4.64-0.46-6.82c-0.18-2.18-0.42-4.33-0.7-6.45c-0.16-1.26-0.44-2.17-0.83-2.72c-0.39-0.55-0.79-0.93-1.19-1.13
			v-0.31c0.45-0.2,0.87-0.49,1.25-0.86c0.39-0.37,0.72-0.9,1.01-1.59c0.16-0.41,0.31-0.86,0.43-1.35c0.12-0.49,0.23-1.09,0.34-1.8
			c0.1-0.71,0.17-1.57,0.21-2.57c0.04-1,0.06-2.23,0.06-3.7c0-1.43-0.03-2.68-0.09-3.76c-0.06-1.08-0.17-2.03-0.34-2.84
			c-0.16-0.82-0.38-1.52-0.64-2.11c-0.27-0.59-0.58-1.13-0.95-1.62c-0.57-0.73-1.24-1.27-2.02-1.62c-0.77-0.35-1.88-0.52-3.3-0.52
			h-9.78v46.29h5.38V54.56z M231.71,33.22h3.42c0.94,0,1.65,0.39,2.14,1.16c0.12,0.2,0.23,0.44,0.34,0.7
			c0.1,0.27,0.17,0.61,0.21,1.04c0.04,0.43,0.07,0.98,0.09,1.65c0.02,0.67,0.03,1.52,0.03,2.54c0,1.35-0.01,2.44-0.03,3.27
			c-0.02,0.84-0.06,1.53-0.12,2.08c-0.06,0.55-0.13,0.99-0.21,1.31c-0.08,0.33-0.2,0.65-0.37,0.98c-0.33,0.69-0.73,1.14-1.22,1.35
			c-0.49,0.2-1.1,0.31-1.83,0.31h-2.45V33.22z"/>
		<path class="st0" d="M259.65,74.13l5.01-46.29h-5.69c-0.45,5.54-0.85,10.3-1.19,14.28c-0.35,3.97-0.63,7.35-0.86,10.12
			c-0.22,2.77-0.41,5.02-0.55,6.76c-0.14,1.73-0.27,3.14-0.37,4.22c-0.1,1.08-0.17,1.93-0.21,2.54c-0.04,0.61-0.06,1.16-0.06,1.65
			h-0.43c-0.04-0.49-0.07-1.04-0.09-1.65c-0.02-0.61-0.07-1.46-0.15-2.54c-0.08-1.08-0.2-2.49-0.37-4.22
			c-0.16-1.73-0.36-3.98-0.58-6.76c-0.22-2.77-0.51-6.15-0.86-10.12c-0.35-3.97-0.74-8.73-1.19-14.28h-5.81l4.83,46.29H259.65z"/>
		<rect x="269.01" y="27.84" class="st0" width="5.56" height="46.29"/>
		<path class="st0" d="M279.71,65.2c0.12,1.51,0.28,2.71,0.49,3.61c0.2,0.9,0.45,1.67,0.73,2.32c0.57,1.43,1.41,2.42,2.51,2.97
			c1.1,0.55,2.73,0.83,4.89,0.83c1.63,0,2.98-0.3,4.04-0.89c1.06-0.59,1.9-1.49,2.54-2.69c0.63-1.2,1.08-2.7,1.35-4.49
			c0.26-1.79,0.4-3.89,0.4-6.3c0-0.69,0-1.39,0-2.08c0-0.69-0.04-1.39-0.12-2.08h-5.08c0.04,0.61,0.06,1.2,0.06,1.77
			c0,0.57,0,1.2,0,1.9c0,1.43-0.05,2.68-0.15,3.76c-0.1,1.08-0.26,2.03-0.46,2.84c-0.2,0.82-0.5,1.44-0.89,1.87
			c-0.39,0.43-0.95,0.64-1.68,0.64c-0.94,0-1.6-0.15-1.99-0.46c-0.39-0.31-0.68-0.8-0.89-1.5c-0.12-0.49-0.23-1.06-0.34-1.71
			c-0.1-0.65-0.18-1.57-0.24-2.75c-0.06-1.18-0.1-2.75-0.12-4.71c-0.02-1.96-0.03-4.46-0.03-7.52c0-3.02,0.01-5.47,0.03-7.37
			c0.02-1.9,0.06-3.41,0.12-4.56c0.06-1.14,0.14-2.01,0.24-2.6c0.1-0.59,0.21-1.13,0.34-1.62c0.2-0.73,0.49-1.24,0.86-1.53
			c0.37-0.28,0.96-0.43,1.77-0.43c0.65,0,1.16,0.08,1.53,0.24c0.37,0.16,0.67,0.51,0.92,1.04c0.28,0.57,0.5,1.43,0.64,2.57
			c0.14,1.14,0.21,2.65,0.21,4.52c0,1.02,0,1.77,0,2.26c0,0.49-0.02,1.06-0.06,1.71h5.14c0.04-0.69,0.07-1.35,0.09-1.96
			c0.02-0.61,0.03-1.32,0.03-2.14c0-3.02-0.22-5.54-0.67-7.58c-0.45-2.04-1.08-3.46-1.9-4.28c-0.65-0.65-1.43-1.11-2.32-1.38
			c-0.9-0.26-2.1-0.4-3.61-0.4c-2.16,0-3.74,0.29-4.74,0.86c-1,0.57-1.78,1.53-2.35,2.87c-0.16,0.41-0.35,0.9-0.55,1.47
			c-0.2,0.57-0.39,1.53-0.55,2.87c-0.16,1.35-0.3,3.23-0.4,5.66c-0.1,2.43-0.15,5.7-0.15,9.81c0,3.59,0.03,6.54,0.09,8.87
			C279.49,61.77,279.59,63.69,279.71,65.2z"/>
		<rect x="301.6" y="27.84" class="st0" width="5.56" height="46.29"/>
		<path class="st0" d="M312.3,65.44c0.12,1.43,0.28,2.56,0.49,3.39c0.2,0.84,0.45,1.6,0.73,2.29c0.57,1.43,1.39,2.42,2.45,2.97
			c1.06,0.55,2.63,0.83,4.71,0.83c2.08,0,3.65-0.28,4.71-0.83c1.06-0.55,1.87-1.54,2.45-2.97c0.28-0.69,0.53-1.46,0.73-2.29
			c0.2-0.84,0.37-1.97,0.49-3.39c0.12-1.43,0.21-3.29,0.28-5.6c0.06-2.3,0.09-5.27,0.09-8.9c0-3.63-0.03-6.58-0.09-8.87
			c-0.06-2.28-0.15-4.14-0.28-5.56c-0.12-1.43-0.29-2.55-0.49-3.36c-0.2-0.81-0.45-1.59-0.73-2.32c-0.57-1.43-1.39-2.42-2.45-2.97
			c-1.06-0.55-2.63-0.83-4.71-0.83c-2.08,0-3.65,0.28-4.71,0.83c-1.06,0.55-1.88,1.54-2.45,2.97c-0.29,0.73-0.53,1.51-0.73,2.32
			c-0.2,0.82-0.37,1.94-0.49,3.36c-0.12,1.43-0.21,3.28-0.28,5.56c-0.06,2.28-0.09,5.24-0.09,8.87c0,3.63,0.03,6.59,0.09,8.9
			C312.09,62.15,312.18,64.02,312.3,65.44z M317.34,43.09c0.02-1.94,0.06-3.46,0.12-4.59c0.06-1.12,0.14-1.97,0.24-2.54
			c0.1-0.57,0.21-1.1,0.34-1.59c0.2-0.69,0.49-1.19,0.86-1.5c0.37-0.31,0.96-0.46,1.77-0.46c0.81,0,1.42,0.15,1.8,0.46
			c0.39,0.31,0.68,0.83,0.89,1.56c0.12,0.49,0.22,1.01,0.31,1.56c0.08,0.55,0.15,1.39,0.21,2.51c0.06,1.12,0.1,2.65,0.12,4.59
			c0.02,1.94,0.03,4.52,0.03,7.74c0,3.22-0.02,5.79-0.06,7.7c-0.04,1.92-0.09,3.43-0.15,4.56c-0.06,1.12-0.13,1.97-0.21,2.54
			c-0.08,0.57-0.18,1.1-0.31,1.59c-0.2,0.73-0.49,1.24-0.86,1.53c-0.37,0.29-0.96,0.43-1.77,0.43c-0.82,0-1.41-0.14-1.77-0.43
			c-0.37-0.28-0.65-0.79-0.86-1.53c-0.12-0.49-0.23-1.02-0.34-1.59c-0.1-0.57-0.18-1.42-0.24-2.54c-0.06-1.12-0.1-2.64-0.12-4.56
			c-0.02-1.92-0.03-4.48-0.03-7.7C317.31,47.61,317.32,45.03,317.34,43.09z"/>
		<path class="st0" d="M333.89,45.81c0.16,0.82,0.39,1.48,0.67,1.99c0.28,0.51,0.63,0.97,1.04,1.38c0.41,0.41,0.9,0.83,1.47,1.25
			c0.57,0.43,1.16,0.85,1.77,1.25c0.61,0.41,1.22,0.81,1.83,1.19c0.61,0.39,1.16,0.76,1.65,1.13c0.61,0.45,1.05,0.82,1.31,1.1
			c0.26,0.29,0.48,0.71,0.64,1.28c0.08,0.33,0.14,0.62,0.18,0.89c0.04,0.27,0.08,0.57,0.12,0.92c0.04,0.35,0.06,0.79,0.06,1.31
			c0,0.53,0,1.18,0,1.96c0,2.04-0.04,3.51-0.12,4.4c-0.08,0.9-0.27,1.63-0.55,2.2c-0.29,0.53-0.6,0.89-0.95,1.07
			c-0.35,0.18-0.93,0.28-1.74,0.28c-0.69,0-1.2-0.09-1.53-0.28c-0.33-0.18-0.61-0.5-0.86-0.95c-0.29-0.53-0.47-1.19-0.55-1.99
			c-0.08-0.79-0.12-2.09-0.12-3.88c0-0.86,0.01-1.57,0.03-2.14c0.02-0.57,0.07-1.08,0.15-1.53h-4.65c-0.08,0.57-0.15,1.25-0.21,2.05
			c-0.06,0.79-0.09,1.72-0.09,2.78c0,1.31,0.03,2.41,0.09,3.3c0.06,0.9,0.15,1.67,0.28,2.32c0.12,0.65,0.28,1.22,0.49,1.71
			c0.2,0.49,0.43,0.96,0.67,1.41c0.57,1.06,1.33,1.77,2.29,2.14c0.96,0.37,2.27,0.55,3.94,0.55c1.96,0,3.46-0.24,4.52-0.73
			c1.06-0.49,1.83-1.2,2.32-2.14c0.24-0.49,0.47-1.01,0.67-1.56c0.2-0.55,0.38-1.22,0.52-2.02c0.14-0.79,0.25-1.75,0.34-2.87
			c0.08-1.12,0.12-2.48,0.12-4.07c0-1.51-0.01-2.74-0.03-3.7c-0.02-0.96-0.06-1.74-0.12-2.35c-0.06-0.61-0.15-1.1-0.28-1.47
			c-0.12-0.37-0.27-0.73-0.43-1.1c-0.33-0.65-0.66-1.15-1.01-1.5c-0.35-0.35-0.89-0.78-1.62-1.31c-0.94-0.69-1.93-1.32-2.97-1.9
			c-1.04-0.57-1.93-1.14-2.66-1.71c-0.65-0.49-1.08-0.87-1.28-1.13c-0.2-0.26-0.41-0.66-0.61-1.19c-0.08-0.28-0.15-0.56-0.21-0.83
			c-0.06-0.26-0.1-0.59-0.12-0.98c-0.02-0.39-0.03-0.88-0.03-1.47c0-0.59,0-1.35,0-2.29c0-1.63,0.05-2.81,0.15-3.55
			c0.1-0.73,0.3-1.32,0.58-1.77c0.24-0.37,0.52-0.61,0.83-0.73c0.31-0.12,0.78-0.18,1.44-0.18c0.65,0,1.14,0.05,1.47,0.15
			c0.33,0.1,0.61,0.32,0.86,0.64c0.33,0.45,0.55,1.05,0.67,1.8c0.12,0.75,0.18,1.91,0.18,3.45c0,0.94-0.01,1.7-0.03,2.29
			c-0.02,0.59-0.07,1.09-0.15,1.5h4.59c0.12-0.53,0.21-1.21,0.28-2.05c0.06-0.83,0.09-1.9,0.09-3.21c0-2.08-0.1-3.68-0.31-4.8
			c-0.2-1.12-0.59-2.07-1.16-2.84c-0.53-0.69-1.27-1.24-2.23-1.65c-0.96-0.41-2.38-0.61-4.25-0.61c-1.59,0-2.81,0.14-3.67,0.43
			c-0.86,0.29-1.61,0.77-2.26,1.47c-0.73,0.82-1.25,1.87-1.56,3.15c-0.31,1.28-0.46,3.21-0.46,5.78c0,1.96,0.04,3.57,0.12,4.83
			C333.6,43.96,333.72,45,333.89,45.81z"/>
		<rect x="364.7" y="27.84" class="st0" width="5.56" height="46.29"/>
		<path class="st0" d="M380.48,50.71c0-1.71,0-3.28,0-4.71c0-1.43-0.02-2.79-0.06-4.1h0.31c0.08,0.41,0.19,0.87,0.34,1.38
			c0.14,0.51,0.35,1.21,0.61,2.11c0.26,0.9,0.6,2.06,1.01,3.49c0.41,1.43,0.95,3.26,1.62,5.5c0.67,2.24,1.5,4.97,2.48,8.19
			c0.98,3.22,2.14,7.07,3.49,11.56h2.81V27.84h-5.01v17.73c0,1.39,0,2.49,0,3.3c0,0.82,0.02,1.61,0.06,2.38h-0.31
			c-0.04-0.24-0.09-0.52-0.15-0.83c-0.06-0.31-0.16-0.75-0.31-1.35c-0.14-0.59-0.35-1.39-0.61-2.38c-0.27-1-0.61-2.32-1.04-3.97
			c-0.43-1.65-0.97-3.69-1.62-6.11c-0.65-2.42-1.43-5.35-2.32-8.77h-6.24v46.29h4.95V50.71z"/>
		<path class="st0" d="M398.03,65.2c0.12,1.51,0.28,2.71,0.49,3.61c0.2,0.9,0.45,1.67,0.73,2.32c0.57,1.43,1.41,2.42,2.51,2.97
			c1.1,0.55,2.73,0.83,4.89,0.83c1.63,0,2.98-0.3,4.04-0.89c1.06-0.59,1.9-1.49,2.54-2.69c0.63-1.2,1.08-2.7,1.34-4.49
			c0.26-1.79,0.4-3.89,0.4-6.3c0-0.69,0-1.39,0-2.08c0-0.69-0.04-1.39-0.12-2.08h-5.08c0.04,0.61,0.06,1.2,0.06,1.77
			c0,0.57,0,1.2,0,1.9c0,1.43-0.05,2.68-0.15,3.76c-0.1,1.08-0.26,2.03-0.46,2.84c-0.2,0.82-0.5,1.44-0.89,1.87
			c-0.39,0.43-0.95,0.64-1.68,0.64c-0.94,0-1.6-0.15-1.99-0.46c-0.39-0.31-0.68-0.8-0.89-1.5c-0.12-0.49-0.23-1.06-0.34-1.71
			c-0.1-0.65-0.18-1.57-0.24-2.75c-0.06-1.18-0.1-2.75-0.12-4.71c-0.02-1.96-0.03-4.46-0.03-7.52c0-3.02,0.01-5.47,0.03-7.37
			c0.02-1.9,0.06-3.41,0.12-4.56c0.06-1.14,0.14-2.01,0.24-2.6c0.1-0.59,0.21-1.13,0.34-1.62c0.2-0.73,0.49-1.24,0.86-1.53
			c0.37-0.28,0.96-0.43,1.77-0.43c0.65,0,1.16,0.08,1.53,0.24c0.37,0.16,0.67,0.51,0.92,1.04c0.28,0.57,0.5,1.43,0.64,2.57
			c0.14,1.14,0.21,2.65,0.21,4.52c0,1.02,0,1.77,0,2.26c0,0.49-0.02,1.06-0.06,1.71h5.14c0.04-0.69,0.07-1.35,0.09-1.96
			c0.02-0.61,0.03-1.32,0.03-2.14c0-3.02-0.22-5.54-0.67-7.58c-0.45-2.04-1.08-3.46-1.9-4.28c-0.65-0.65-1.43-1.11-2.32-1.38
			c-0.9-0.26-2.1-0.4-3.61-0.4c-2.16,0-3.74,0.29-4.74,0.86c-1,0.57-1.78,1.53-2.35,2.87c-0.16,0.41-0.35,0.9-0.55,1.47
			c-0.2,0.57-0.39,1.53-0.55,2.87c-0.16,1.35-0.3,3.23-0.4,5.66c-0.1,2.43-0.15,5.7-0.15,9.81c0,3.59,0.03,6.54,0.09,8.87
			C397.81,61.77,397.91,63.69,398.03,65.2z"/>
		<polygon class="st0" points="433.49,68.38 425.24,68.38 425.24,27.84 419.86,27.84 419.86,74.13 433.49,74.13 		"/>
		<path class="st0" d="M437.28,67.95c0.08,0.78,0.2,1.45,0.37,2.02c0.16,0.57,0.39,1.14,0.67,1.71c0.61,1.22,1.48,2.07,2.6,2.54
			c1.12,0.47,2.78,0.7,4.98,0.7c2.16,0,3.8-0.24,4.92-0.7c1.12-0.47,1.99-1.31,2.6-2.54c0.28-0.57,0.51-1.14,0.67-1.71
			c0.16-0.57,0.28-1.24,0.34-2.02c0.06-0.77,0.1-1.69,0.12-2.75c0.02-1.06,0.03-2.36,0.03-3.91V27.84h-5.38v33.45
			c0,1.22-0.01,2.21-0.03,2.97c-0.02,0.75-0.05,1.38-0.09,1.87c-0.04,0.49-0.11,0.88-0.21,1.16c-0.1,0.29-0.23,0.57-0.4,0.86
			c-0.24,0.41-0.55,0.68-0.92,0.83c-0.37,0.14-0.9,0.21-1.59,0.21c-0.69,0-1.23-0.07-1.62-0.21c-0.39-0.14-0.7-0.42-0.95-0.83
			c-0.16-0.28-0.3-0.57-0.4-0.86c-0.1-0.28-0.17-0.67-0.21-1.16c-0.04-0.49-0.07-1.11-0.09-1.87c-0.02-0.75-0.03-1.74-0.03-2.97
			V27.84h-5.56v33.45c0,1.55,0.01,2.85,0.03,3.91C437.15,66.26,437.2,67.18,437.28,67.95z"/>
		<rect x="459.6" y="27.84" class="st0" width="5.56" height="46.29"/>
		<path class="st0" d="M487.91,37.01c-0.12-1.39-0.29-2.48-0.49-3.27c-0.2-0.79-0.45-1.54-0.73-2.23c-0.61-1.39-1.45-2.34-2.51-2.87
			c-1.06-0.53-2.63-0.8-4.71-0.8h-8.99v46.29h8.99c2.12,0,3.71-0.25,4.77-0.76c1.06-0.51,1.87-1.46,2.45-2.84
			c0.28-0.65,0.52-1.37,0.7-2.14c0.18-0.77,0.34-1.84,0.46-3.21c0.12-1.37,0.21-3.17,0.28-5.41c0.06-2.24,0.09-5.18,0.09-8.81
			c0-3.51-0.02-6.36-0.06-8.56C488.12,40.19,488.04,38.39,487.91,37.01z M482.69,58.17c-0.02,1.83-0.05,3.3-0.09,4.4
			c-0.04,1.1-0.11,1.94-0.21,2.51c-0.1,0.57-0.21,1.08-0.34,1.53c-0.2,0.69-0.5,1.17-0.89,1.44c-0.39,0.27-0.99,0.4-1.8,0.4h-3.49
			v-35.1h3.49c0.77,0,1.35,0.14,1.74,0.43c0.39,0.29,0.7,0.77,0.95,1.47c0.16,0.45,0.28,0.97,0.37,1.56
			c0.08,0.59,0.14,1.45,0.18,2.57c0.04,1.12,0.07,2.59,0.09,4.4c0.02,1.81,0.03,4.19,0.03,7.12
			C482.72,53.91,482.71,56.33,482.69,58.17z"/>
		<path class="st0" d="M509.5,36.52c-0.12-1.43-0.29-2.55-0.49-3.36c-0.2-0.81-0.45-1.59-0.73-2.32c-0.57-1.43-1.39-2.42-2.45-2.97
			c-1.06-0.55-2.63-0.83-4.71-0.83c-2.08,0-3.65,0.28-4.71,0.83c-1.06,0.55-1.88,1.54-2.45,2.97c-0.29,0.73-0.53,1.51-0.73,2.32
			c-0.2,0.82-0.37,1.94-0.49,3.36c-0.12,1.43-0.21,3.28-0.28,5.56c-0.06,2.28-0.09,5.24-0.09,8.87c0,3.63,0.03,6.59,0.09,8.9
			c0.06,2.3,0.15,4.17,0.28,5.6c0.12,1.43,0.28,2.56,0.49,3.39c0.2,0.84,0.45,1.6,0.73,2.29c0.57,1.43,1.39,2.42,2.45,2.97
			c1.06,0.55,2.63,0.83,4.71,0.83c2.08,0,3.65-0.28,4.71-0.83c1.06-0.55,1.87-1.54,2.45-2.97c0.28-0.69,0.53-1.46,0.73-2.29
			c0.2-0.84,0.37-1.97,0.49-3.39c0.12-1.43,0.21-3.29,0.28-5.6c0.06-2.3,0.09-5.27,0.09-8.9c0-3.63-0.03-6.58-0.09-8.87
			C509.71,39.8,509.62,37.95,509.5,36.52z M504.42,58.53c-0.04,1.92-0.09,3.43-0.15,4.56c-0.06,1.12-0.13,1.97-0.21,2.54
			c-0.08,0.57-0.18,1.1-0.31,1.59c-0.2,0.73-0.49,1.24-0.86,1.53c-0.37,0.29-0.96,0.43-1.77,0.43c-0.82,0-1.41-0.14-1.77-0.43
			c-0.37-0.28-0.65-0.79-0.86-1.53c-0.12-0.49-0.23-1.02-0.34-1.59c-0.1-0.57-0.18-1.42-0.24-2.54c-0.06-1.12-0.1-2.64-0.12-4.56
			c-0.02-1.92-0.03-4.48-0.03-7.7c0-3.22,0.01-5.8,0.03-7.74c0.02-1.94,0.06-3.46,0.12-4.59c0.06-1.12,0.14-1.97,0.24-2.54
			c0.1-0.57,0.21-1.1,0.34-1.59c0.2-0.69,0.49-1.19,0.86-1.5c0.37-0.31,0.96-0.46,1.77-0.46c0.81,0,1.42,0.15,1.8,0.46
			c0.39,0.31,0.68,0.83,0.89,1.56c0.12,0.49,0.22,1.01,0.31,1.56c0.08,0.55,0.15,1.39,0.21,2.51c0.06,1.12,0.1,2.65,0.12,4.59
			c0.02,1.94,0.03,4.52,0.03,7.74C504.48,54.05,504.46,56.62,504.42,58.53z"/>
		<path class="st0" d="M530.14,57.83c-0.02-0.96-0.06-1.74-0.12-2.35c-0.06-0.61-0.15-1.1-0.28-1.47c-0.12-0.37-0.27-0.73-0.43-1.1
			c-0.33-0.65-0.66-1.15-1.01-1.5c-0.35-0.35-0.89-0.78-1.62-1.31c-0.94-0.69-1.93-1.32-2.97-1.9c-1.04-0.57-1.93-1.14-2.66-1.71
			c-0.65-0.49-1.08-0.87-1.28-1.13c-0.2-0.26-0.41-0.66-0.61-1.19c-0.08-0.28-0.15-0.56-0.21-0.83c-0.06-0.26-0.1-0.59-0.12-0.98
			c-0.02-0.39-0.03-0.88-0.03-1.47c0-0.59,0-1.35,0-2.29c0-1.63,0.05-2.81,0.15-3.55c0.1-0.73,0.3-1.32,0.58-1.77
			c0.24-0.37,0.52-0.61,0.83-0.73c0.31-0.12,0.78-0.18,1.44-0.18c0.65,0,1.14,0.05,1.47,0.15c0.33,0.1,0.61,0.32,0.86,0.64
			c0.33,0.45,0.55,1.05,0.67,1.8c0.12,0.75,0.18,1.91,0.18,3.45c0,0.94-0.01,1.7-0.03,2.29c-0.02,0.59-0.07,1.09-0.15,1.5h4.59
			c0.12-0.53,0.21-1.21,0.28-2.05c0.06-0.83,0.09-1.9,0.09-3.21c0-2.08-0.1-3.68-0.31-4.8c-0.2-1.12-0.59-2.07-1.16-2.84
			c-0.53-0.69-1.27-1.24-2.23-1.65c-0.96-0.41-2.38-0.61-4.25-0.61c-1.59,0-2.81,0.14-3.67,0.43c-0.86,0.29-1.61,0.77-2.26,1.47
			c-0.73,0.82-1.25,1.87-1.56,3.15c-0.31,1.28-0.46,3.21-0.46,5.78c0,1.96,0.04,3.57,0.12,4.83c0.08,1.26,0.2,2.3,0.37,3.12
			c0.16,0.82,0.39,1.48,0.67,1.99c0.28,0.51,0.63,0.97,1.04,1.38c0.41,0.41,0.9,0.83,1.47,1.25c0.57,0.43,1.16,0.85,1.77,1.25
			c0.61,0.41,1.22,0.81,1.83,1.19c0.61,0.39,1.16,0.76,1.65,1.13c0.61,0.45,1.05,0.82,1.31,1.1c0.26,0.29,0.48,0.71,0.64,1.28
			c0.08,0.33,0.14,0.62,0.18,0.89c0.04,0.27,0.08,0.57,0.12,0.92c0.04,0.35,0.06,0.79,0.06,1.31c0,0.53,0,1.18,0,1.96
			c0,2.04-0.04,3.51-0.12,4.4c-0.08,0.9-0.27,1.63-0.55,2.2c-0.29,0.53-0.6,0.89-0.95,1.07c-0.35,0.18-0.93,0.28-1.74,0.28
			c-0.69,0-1.2-0.09-1.53-0.28c-0.33-0.18-0.61-0.5-0.86-0.95c-0.29-0.53-0.47-1.19-0.55-1.99c-0.08-0.79-0.12-2.09-0.12-3.88
			c0-0.86,0.01-1.57,0.03-2.14c0.02-0.57,0.07-1.08,0.15-1.53h-4.65c-0.08,0.57-0.15,1.25-0.21,2.05c-0.06,0.79-0.09,1.72-0.09,2.78
			c0,1.31,0.03,2.41,0.09,3.3c0.06,0.9,0.15,1.67,0.28,2.32c0.12,0.65,0.28,1.22,0.49,1.71c0.2,0.49,0.43,0.96,0.67,1.41
			c0.57,1.06,1.33,1.77,2.29,2.14c0.96,0.37,2.27,0.55,3.94,0.55c1.96,0,3.46-0.24,4.52-0.73c1.06-0.49,1.83-1.2,2.32-2.14
			c0.24-0.49,0.47-1.01,0.67-1.56c0.2-0.55,0.38-1.22,0.52-2.02c0.14-0.79,0.25-1.75,0.34-2.87c0.08-1.12,0.12-2.48,0.12-4.07
			C530.17,60.02,530.16,58.79,530.14,57.83z"/>
		<polygon class="st0" points="112.76,63.7 95.39,66.1 0,231.19 17.37,228.8 		"/>
		<polygon class="st0" points="22.54,30.65 22.97,27.34 26.28,26.89 166.38,7.6 167.37,0 11.47,21.46 2.65,89.38 15.14,87.66 		"/>
		<polygon class="st0" points="359.23,161.86 111.06,160.01 150.73,92.3 401.65,84.77 156.21,82.95 178.13,45.53 182.78,9.75 
			26.87,31.22 18.06,99.13 63.13,92.93 66.68,65.64 121.01,58.16 15.4,240.94 67.88,233.72 105.52,169.48 		"/>
	</g>
</g>
</svg>
