<?xml version="1.0" encoding="utf-8"?>
<!-- Generator: Adobe Illustrator 26.0.2, SVG Export Plug-In . SVG Version: 6.00 Build 0)  -->
<svg version="1.1" id="LOGO_x2F_Avenir_Medium" xmlns="http://www.w3.org/2000/svg" xmlns:xlink="http://www.w3.org/1999/xlink"
	 x="0px" y="0px" viewBox="0 0 532.56 358.97" style="enable-background:new 0 0 532.56 358.97;" xml:space="preserve">
<style type="text/css">
	.st0{fill:#FFFFFF;}
</style>
<g>
	<polygon class="st0" points="76.24,343.49 101.12,343.49 101.12,337.1 83.05,337.1 83.05,322.03 100.59,322.03 100.59,315.64 
		83.05,315.64 83.05,304.81 101.12,304.81 101.12,298.42 76.24,298.42 	"/>
	<path class="st0" d="M123.28,314.27c-2.88,0-5.47,1.14-7.77,3.42v-2.63h-6.6v28.44h6.6v-13.72c0-3.54,0.45-6.02,1.34-7.44
		c0.91-1.44,2.46-2.16,4.64-2.16c2,0,3.39,0.55,4.15,1.63c0.78,1.07,1.17,3.01,1.17,5.81v15.88h6.6v-17.43c0-4.01-0.8-6.9-2.39-8.67
		C129.17,315.31,126.59,314.27,123.28,314.27z"/>
	<rect x="141.82" y="315.06" class="st0" width="6.57" height="43.91"/>
	<path class="st0" d="M145.09,299c-1.17,0-2.17,0.42-3.01,1.26c-0.84,0.84-1.26,1.83-1.26,2.98c0,1.21,0.42,2.23,1.26,3.07
		c0.84,0.84,1.85,1.26,3.04,1.26c1.19,0,2.19-0.42,3.01-1.26c0.84-0.84,1.26-1.85,1.26-3.04c0-1.19-0.42-2.19-1.26-3.01
		C147.29,299.42,146.28,299,145.09,299z"/>
	<path class="st0" d="M170.64,314.27c-4.22,0-7.8,1.44-10.74,4.32c-2.94,2.88-4.41,6.37-4.41,10.48c0,4.36,1.44,7.98,4.32,10.86
		c2.88,2.92,6.45,4.38,10.71,4.38c4.3,0,7.93-1.43,10.89-4.29c2.94-2.88,4.41-6.45,4.41-10.71c0-4.22-1.46-7.78-4.38-10.69
		C178.48,315.72,174.88,314.27,170.64,314.27z M176.8,335.96c-1.54,1.65-3.59,2.48-6.16,2.48c-2.55,0-4.6-0.84-6.16-2.51
		c-1.52-1.65-2.28-3.9-2.28-6.74c0-2.65,0.78-4.81,2.34-6.48c1.56-1.67,3.59-2.51,6.1-2.51c2.55,0,4.6,0.84,6.16,2.51
		c1.54,1.65,2.31,3.86,2.31,6.63C179.1,332.1,178.33,334.31,176.8,335.96z"/>
	<polygon class="st0" points="204.01,331.41 195.31,315.06 187.69,315.06 200.48,338.21 189.38,358.97 196.89,358.97 219.54,315.06 
		212.13,315.06 	"/>
	<polygon class="st0" points="363.17,298.42 350.7,328.54 338.97,296.23 326.7,328.54 314.97,298.42 307.58,298.42 326.73,346.38 
		338.82,314.41 350.41,346.35 370.55,298.42 	"/>
	<path class="st0" d="M391.74,318.36c-2.63-2.72-5.6-4.09-8.9-4.09c-3.83,0-7.03,1.42-9.58,4.26c-2.55,2.84-3.82,6.39-3.82,10.66
		c0,4.34,1.27,7.96,3.82,10.86c2.57,2.84,5.82,4.26,9.75,4.26c3.11,0,6.02-1.27,8.73-3.8v2.98h6.6v-28.44h-6.6V318.36z
		 M389.9,335.93c-1.5,1.67-3.47,2.51-5.9,2.51c-2.28,0-4.17-0.87-5.66-2.6c-1.46-1.71-2.19-3.93-2.19-6.66
		c0-2.55,0.75-4.69,2.25-6.42c1.52-1.71,3.41-2.57,5.66-2.57c2.39,0,4.34,0.85,5.84,2.54c1.5,1.73,2.25,3.93,2.25,6.6
		C392.14,332,391.4,334.2,389.9,335.93z"/>
	<polygon class="st0" points="419.05,331.41 410.35,315.06 402.73,315.06 415.52,338.21 404.42,358.97 411.92,358.97 434.58,315.06 
		427.16,315.06 	"/>
	<path class="st0" d="M447.97,325.54c-2.53-1.07-3.8-2.15-3.8-3.24c0-0.62,0.21-1.13,0.64-1.53c0.43-0.4,0.94-0.6,1.55-0.6
		c1.27,0,2.33,0.88,3.18,2.63l5.43-2.89c-1.77-3.76-4.48-5.63-8.12-5.63c-2.47,0-4.57,0.81-6.31,2.42
		c-1.69,1.62-2.54,3.66-2.54,6.13c0,1.87,0.5,3.4,1.49,4.58c0.78,0.93,2.12,1.87,4.03,2.8c0.68,0.33,1.35,0.65,2.01,0.96
		c0.66,0.31,1.32,0.63,1.98,0.96c1.71,1.01,2.57,2.1,2.57,3.27c0,2.02-1.11,3.04-3.33,3.04c-1.11,0-2.06-0.37-2.86-1.11
		c-0.41-0.37-1-1.24-1.78-2.6l-5.61,2.6c1.98,4.65,5.36,6.98,10.13,6.98c2.78,0,5.16-0.88,7.12-2.63c2.02-1.85,3.04-4.15,3.04-6.89
		c0-2.14-0.6-3.84-1.81-5.11C453.79,328.42,451.45,327.04,447.97,325.54z"/>
	<path class="st0" d="M235.37,343.49h5.17l3.54-7.72h13.61l3.34,7.72h5.25L251.1,309.7L235.37,343.49z M246.08,331.26l4.94-10.81
		l4.72,10.81H246.08z"/>
	<rect x="271.48" y="308.71" class="st0" width="4.63" height="34.78"/>
	<rect x="284.09" y="308.71" class="st0" width="4.63" height="34.78"/>
	<path class="st0" d="M62.84,247.97H50.6c-6.13,0-11.1,4.75-11.1,10.58c0,5.82,4.97,10.57,11.1,10.57h12.24
		c6.12,0,11.09-4.75,11.09-10.57C73.93,252.72,68.96,247.97,62.84,247.97z M62.47,265.19H50.95c-3.81,0-6.92-2.98-6.92-6.65
		c0-3.67,3.11-6.65,6.92-6.65h11.51c3.82,0,6.92,2.98,6.92,6.65C69.39,262.21,66.29,265.19,62.47,265.19z"/>
	<path class="st0" d="M191.83,265.25c-0.24,0-14.09,0-14.09,0v-13.42c0,0,13.85,0,14.09,0c0-0.23,0-3.64,0-3.86
		c-0.24,0-32.41,0-32.66,0c0,0.23,0,3.64,0,3.86c0.25,0,14.31,0,14.31,0v13.42c0,0-14.06,0-14.31,0c0,0.22,0,3.63,0,3.86
		c0.25,0,32.42,0,32.66,0C191.83,268.89,191.83,265.48,191.83,265.25z"/>
	<path class="st0" d="M225.19,256.65H205.6c-1.33,0-2.4-1.07-2.4-2.4c0-1.32,1.07-2.38,2.4-2.38c0,0,24.95,0,25.19,0
		c0-0.22,0-3.67,0-3.9c-0.24,0-25.68,0-25.68,0c-3.5,0-6.33,2.83-6.33,6.29c0,3.47,2.84,6.3,6.33,6.3h19.59
		c1.32,0,2.4,1.04,2.4,2.33c0,1.28-1.08,2.33-2.4,2.33c0,0-24.95,0-25.19,0c0,0.23,0,3.67,0,3.9c0.24,0,25.68,0,25.68,0
		c3.5,0,6.32-2.8,6.32-6.23C231.51,259.44,228.69,256.65,225.19,256.65z"/>
	<path class="st0" d="M526.23,256.65h-19.61c-1.32,0-2.39-1.07-2.39-2.4c0-1.32,1.07-2.38,2.39-2.38c0,0,24.97,0,25.22,0
		c0-0.22,0-3.67,0-3.9c-0.25,0-25.72,0-25.72,0c-3.48,0-6.34,2.83-6.34,6.29c0,3.47,2.86,6.3,6.34,6.3h19.61
		c1.32,0,2.4,1.04,2.4,2.33c0,1.28-1.08,2.33-2.4,2.33c0,0-24.98,0-25.2,0c0,0.23,0,3.67,0,3.9c0.22,0,25.69,0,25.69,0
		c3.49,0,6.33-2.8,6.33-6.23C532.56,259.44,529.72,256.65,526.23,256.65z"/>
	<path class="st0" d="M294.32,256.49c0,0-21.84,0-22.08,0c0,0.23,0,3.65,0,3.87c0.23,0,19.63,0,19.63,0v4.89h-17.23
		c-3.82,0-6.93-3.01-6.93-6.7c0-3.7,3.11-6.7,6.93-6.7c0,0,21.37,0,21.61,0c0-0.22,0-3.64,0-3.87c-0.24,0-22.11,0-22.11,0
		c-5.99,0-10.87,4.75-10.87,10.58c0,5.82,4.88,10.57,10.87,10.57h20.17c1.1,0,1.97-0.87,1.97-1.93v-8.76
		C296.3,257.36,295.42,256.49,294.32,256.49z"/>
	<path class="st0" d="M430.83,269.12H451c1.09,0,1.97-0.87,1.97-1.93v-8.76c0-1.07-0.88-1.94-1.97-1.94c0,0-21.84,0-22.1,0
		c0,0.23,0,3.65,0,3.87c0.25,0,19.63,0,19.63,0v4.89h-17.23c-3.81,0-6.92-3.01-6.92-6.7c0-3.7,3.11-6.7,6.92-6.7
		c0,0,21.38,0,21.61,0c0-0.22,0-3.64,0-3.87c-0.23,0-22.09,0-22.09,0c-5.99,0-10.87,4.75-10.87,10.58
		C419.96,264.37,424.83,269.12,430.83,269.12z"/>
	<path class="st0" d="M460.24,249.92v17.25c0,1.07,0.88,1.95,1.96,1.95c0,0,29.42,0,29.66,0c0-0.23,0-3.67,0-3.89
		c-0.24,0-27.19,0-27.19,0v-4.73c0,0,26.95,0,27.19,0c0-0.22,0-3.67,0-3.89c-0.24,0-27.19,0-27.19,0v-4.74c0,0,26.95,0,27.19,0
		c0-0.22,0-3.66,0-3.89c-0.24,0-29.66,0-29.66,0C461.12,247.97,460.24,248.85,460.24,249.92z"/>
	<path class="st0" d="M104.93,260.67h1.28c3.74,0,6.67-2.78,6.67-6.35c0-3.55-2.93-6.35-6.67-6.35c0,0-26.41,0-26.66,0
		c0,0.25,0,20.9,0,21.15c0.23,0,4.21,0,4.43,0c0-0.24,0-8.45,0-8.45H98.7c0.1,0.04,8.15,8.49,8.15,8.49s5.62-0.04,6.14-0.04
		C112.62,268.72,104.93,260.67,104.93,260.67z M83.99,256.73v-0.12v-4.7h21.73c1.36,0,2.73,0.83,2.73,2.41
		c0,1.58-1.37,2.41-2.73,2.41H83.99z"/>
	<path class="st0" d="M146.62,260.67c3.74,0,6.67-2.78,6.67-6.35c0-3.55-2.93-6.35-6.67-6.35c0,0-26.41,0-26.66,0
		c0,0.25,0,20.9,0,21.15c0.22,0,4.21,0,4.44,0c0-0.24,0-8.45,0-8.45h14.71c0.09,0.04,8.14,8.49,8.14,8.49s5.62-0.04,6.15-0.04
		c-0.38-0.39-8.05-8.44-8.05-8.44H146.62z M124.4,256.73v-0.12v-4.7h21.74c1.35,0,2.72,0.83,2.72,2.41c0,1.58-1.36,2.41-2.72,2.41
		H124.4z"/>
	<path class="st0" d="M343.05,269.12c0.23,0,4.2,0,4.43,0c0-0.24,0-8.45,0-8.45h14.71c0.09,0.04,8.14,8.49,8.14,8.49
		s5.62-0.04,6.14-0.04c-0.38-0.39-8.06-8.44-8.06-8.44h1.29c3.73,0,6.66-2.78,6.66-6.35c0-3.55-2.93-6.35-6.66-6.35
		c0,0-26.43,0-26.67,0C343.05,248.22,343.05,268.87,343.05,269.12z M347.48,256.61v-4.7h21.74c1.35,0,2.72,0.83,2.72,2.41
		c0,1.58-1.36,2.41-2.72,2.41h-21.74V256.61z"/>
	<path class="st0" d="M16.98,256.17l-0.06,0.04l-13.3-8.28c0,0-3.03,0.04-3.62,0.04c0,0.25,0,20.9,0,21.15c0.23,0,4.2,0,4.43,0
		c0-0.24,0-16.06,0-16.06s12.36,7.68,12.49,7.76c0.12-0.08,12.68-7.79,12.68-7.79s0,15.84,0,16.08c0.23,0,4.21,0,4.44,0
		c0-0.24,0-20.9,0-21.15c-0.23,0-3.73,0-3.73,0C30.3,248,16.98,256.17,16.98,256.17z"/>
	<path class="st0" d="M330.51,266.26c0,0,2.28,2.77,2.35,2.86c0.11,0,5.09,0,5.56,0c-0.32-0.39-16.89-20.43-16.89-20.43
		c-0.38-0.45-0.93-0.72-1.53-0.72c-0.6,0-1.15,0.27-1.53,0.71c0,0-16.63,20.04-16.97,20.43c0.48,0,5.46,0,5.57,0
		c0.07-0.08,2.35-2.86,2.35-2.86H330.51z M313.03,261.92l2.35-2.85l4.63-5.62l4.46,5.44l2.88,3.51h-14.73L313.03,261.92z"/>
	<path class="st0" d="M389.1,266.26h21.06c0,0,2.29,2.77,2.36,2.86c0.1,0,5.08,0,5.56,0c-0.34-0.39-16.9-20.43-16.9-20.43
		c-0.37-0.45-0.92-0.72-1.52-0.72c0,0,0,0-0.01,0c-0.58,0-1.15,0.27-1.52,0.71c0,0-16.64,20.04-16.96,20.43c0.48,0,5.46,0,5.57,0
		C386.8,269.03,389.1,266.26,389.1,266.26z M392.67,261.92l2.34-2.85l4.64-5.62l4.45,5.44l2.89,3.51h-14.72L392.67,261.92z"/>
	<path class="st0" d="M171.25,142.53c3.84,4.48,12.42,14.18,25.24,27c12.39,12.39,22.42,21.28,27.01,25.24
		c1.76,1.52,3.95,2.01,6.27,2.18c5.88,0.45,18.81,1.24,36.94,1.24c18.12,0,31.06-0.79,36.94-1.24c2.32-0.18,4.51-0.67,6.27-2.18
		c4.59-3.96,14.62-12.84,27.01-25.24c12.82-12.82,21.4-22.52,25.24-27c1.51-1.76,2.42-3.96,2.59-6.28
		c0.45-6.05,1.26-19.42,1.26-36.95c0-18.12-0.79-31.06-1.24-36.94c-0.18-2.32-1.09-4.51-2.61-6.27
		c-3.96-4.59-12.85-14.62-25.24-27.01c-12.4-12.4-22.42-21.28-27.01-25.24c-1.76-1.52-3.95-2.43-6.27-2.61
		C297.76,0.79,284.83,0,266.71,0c-18.12,0-31.06,0.79-36.94,1.24c-2.32,0.18-4.51,1.09-6.27,2.61
		c-4.59,3.96-14.62,12.84-27.01,25.24c-12.83,12.83-21.42,22.55-25.26,27.02c-1.5,1.75-2.41,3.94-2.58,6.24
		c-0.45,5.87-1.24,18.81-1.24,36.96c0,17.53,0.81,30.9,1.26,36.95C168.83,138.57,169.74,140.77,171.25,142.53z M176.44,65
		c0.15-1.94,0.91-3.79,2.18-5.27c3.44-4.02,11.41-13.06,23.43-25.08c11.6-11.6,20.95-19.86,25.08-23.42
		c1.49-1.28,3.35-2.05,5.31-2.2c5.29-0.41,17.31-1.16,34.27-1.16c16.96,0,28.98,0.75,34.27,1.16c1.96,0.15,3.82,0.92,5.31,2.2
		c4.13,3.55,13.48,11.81,25.08,23.42c11.6,11.6,19.86,20.95,23.42,25.08c1.28,1.49,2.05,3.35,2.2,5.3
		c0.41,5.29,1.16,17.31,1.16,34.27c0,16.41-0.77,28.86-1.18,34.29c-0.15,1.96-0.92,3.81-2.19,5.31
		c-3.45,4.03-11.42,13.06-23.41,25.05c-11.6,11.6-20.95,19.86-25.08,23.42c-1.49,1.28-3.35,2.05-5.3,2.2
		c-5.29,0.41-17.31,1.16-34.27,1.16c-16.96,0-28.98-0.75-34.27-1.16c-1.96-0.15-3.82-0.92-5.31-2.2
		c-4.13-3.55-13.48-11.81-25.08-23.42c-11.99-11.99-19.96-21.02-23.41-25.05c-1.28-1.49-2.05-3.35-2.19-5.31
		c-0.41-5.43-1.18-17.89-1.18-34.29C175.27,82.31,176.03,70.27,176.44,65z"/>
	<path class="st0" d="M273.24,178.75c0,0,17.48,0.16,25.93-1.02c5.78-4.85,16.75-15.21,24.76-23.21c8.54-8.64,15.88-16.5,17.74-18.7
		c0.77-0.91,2.53-2.8,3.44-4.08c0.13-1.09,0.22-2.01,0.34-4.05c0.62-10.01,0.74-27.95,0.74-28.53c-0.78-0.05-26.95-0.02-27.52,0
		c-0.02,0.44,0.04,13.75,0.04,13.82c0.31,0.02,12.84-0.01,13.3,0.01c-0.01,0.24-0.35,11.34-0.64,13.18
		c-0.99,1.38-2.59,2.84-4.37,4.83c-1.93,2.16-4.69,5.08-10.36,10.9c-7.11,7.29-18.17,17.64-23.12,22.01
		c0.06-0.66-0.12-127.99-0.06-129.26c1.3,1.08,4.4,3.92,5.27,4.74c6.02,5.64,12.3,11.42,17.41,16.77
		c7.47,7.82,14.95,15.94,15.28,16.5c0.1,0.59,0.42,7.38,0.4,7.93c0.52,0.05,13.56-0.03,14.07,0.01l0.04,0
		c-0.14-6.64-0.67-12.44-0.85-13.72c-0.29-0.53-1.01-1.34-1.45-1.83c-5.69-6.44-11.42-12.67-19.22-20.43
		c-15.16-15.08-23.3-22.23-25.31-23.64c-1.49-0.17-4.26-0.39-11.74-0.72c-5.96-0.27-13.51-0.43-14.14-0.4
		c-0.03,1.32-0.13,100.91-0.04,157.55C273.21,178.42,273.24,178.75,273.24,178.75z"/>
	<path class="st0" d="M195.95,140.46c2.41,2.55,6.89,7.21,6.94,7.21c0,0-0.56-7.84-0.61-9.23c-0.53-10.91-0.97-21-1.06-33.6
		c-0.03-1.33-0.03-15.15-0.03-15.15l6.54,11.44l9.32,16.49l0.3,0.26c3.3-8.76,7.48-20.65,11.86-32.12
		c3.44-8.99,7.04-17.49,10.18-25.59c0.21-0.21,0.43-0.96,0.43-0.96s0.11,15.82,0,18.7c0,45.57-0.03,75.33,0.04,100.14l-0.04,0.04
		c2.1,0.11,10.7,0.59,18.58,0.62c0.69,0,1.56,0.02,1.93,0c0.02-0.74,0-1.1,0-1.77c0-58.09-0.01-155.56-0.01-155.56
		s-0.04-0.58-0.06-1.54c-0.54-0.02-4.71-0.09-9.97,0.15c-5.12,0.23-10.02,0.41-10.5,0.47c-0.18,0.44-6.6,13.55-13.17,29.85
		c-8.59,21.3-12.14,31.91-12.14,31.91s-0.32-0.41-2.98-4.94c-4.42-7.54-9.12-15.85-11.78-19.73c-0.46-0.68-1.28-1.85-1.28-1.85
		s-0.14,0.05-0.86,0.72c-1.52,1.41-7.6,8.31-8.87,9.8c-0.61,0.72-0.44,0.67-0.5,0.89c-0.11,1.38-0.85,12.49-0.99,29.57
		c-0.15,17.56,0.25,26.78,1.06,35.07C190.2,134.14,191.65,135.91,195.95,140.46z"/>
</g>
</svg>
