<?xml version="1.0" encoding="utf-8"?>
<!-- Generator: Adobe Illustrator 26.2.1, SVG Export Plug-In . SVG Version: 6.00 Build 0)  -->
<svg version="1.1" id="Layer_1" xmlns="http://www.w3.org/2000/svg" xmlns:xlink="http://www.w3.org/1999/xlink" x="0px" y="0px"
	 viewBox="0 0 166 138" style="enable-background:new 0 0 166 138;" xml:space="preserve">
<style type="text/css">
	.st0{fill:#003085;}
	.st1{fill:#FFFFFF;}
	.st2{fill:#FEFEFE;}
	.st3{fill:#003086;}
</style>
<g>
	<path class="st0" d="M113.6,18.4c-1.1-3.2-3.5-6.3-6.6-8.6c-3.3-2.4-7.2-3.7-11-3.8c-3.1,0-5.7,1-7.7,3c-0.6-1.1-1.7-1.8-2.9-1.8
		c-0.1,0-0.2,0-0.4,0c-2,0.2-4,0.5-6,0.8c-1.7,0.3-2.9,1.9-2.8,3.7c0,0.4,0.1,0.8,0.1,1.2c-0.6-1-1-1.8-1-1.8L75.1,11
		c-0.7-1-1.8-1.6-3-1.6c-0.2,0-0.5,0-0.7,0.1c-2,0.4-3.9,0.9-5.9,1.5c-0.3,0.1-0.6,0.2-0.8,0.4c0,0,0,0,0,0c-0.3,0-0.6,0-0.9,0.1
		c-4.5,1.3-9,2.9-13.4,4.7c-0.5,0.2-0.9,0.5-1.2,0.9c-0.1,0-0.2,0-0.2,0c-0.5,0-0.9,0.1-1.3,0.3c-1.7,0.7-3.3,1.5-4.9,2.3
		c-1,0.5-1.6,1.5-1.8,2.5c-0.5-0.2-1-0.4-1.5-0.4c-0.6,0-1.1,0.1-1.6,0.4c-1.6,0.9-3.2,1.8-4.7,2.8c-0.5,0.3-0.8,0.7-1.1,1.2
		c-0.5,0-1.1,0.2-1.5,0.5c-1.6,1-3.1,2.1-4.7,3.2c-1.1,0.8-1.6,2.3-1.3,3.7c-0.5-0.3-1.1-0.5-1.7-0.5c-0.8,0-1.6,0.3-2.2,0.8
		c-1.5,1.2-2.9,2.4-4.4,3.6c-1.1,0.9-1.5,2.4-1,3.8l6.3,18.5c0.4,1.3,1.7,2.2,3.1,2.2c0.5,0,0.9-0.1,1.3-0.3
		c1.6-0.7,3.2-1.5,4.8-2.2c1.2-0.5,2-1.8,2-3.1c0.6,0.6,1.5,0.9,2.3,0.9c0.5,0,0.9-0.1,1.3-0.3c1.6-0.7,3.3-1.4,4.9-2.1
		c1.4-0.6,2.2-2,2-3.5c1.3,0.5,2.6,0.8,4,0.8c1.4,0,2.7-0.3,4.1-0.8c2.8-1,4.9-3,6.1-5.6c0.6,0.9,1.7,1.5,2.8,1.5
		c0.4,0,0.7-0.1,1-0.2c4.3-1.6,8.8-3.1,13.1-4.5c0.8-0.3,1.5-0.8,1.9-1.6c0.4-0.8,0.5-1.8,0.2-2.7L75,34c0.4,0.6,3,4.8,3,4.8
		c0.7,1.1,1.8,1.7,3,1.7c0.3,0,0.6,0,0.9-0.1c1.8-0.6,3.7-1.1,5.5-1.7c1.7-0.5,2.5-2.1,2.5-3.5l0-0.2c-0.1-1.7-0.2-3.5-0.3-5.2
		c2.9,3.3,6.8,5.3,11,5.3c1.2,0,2.4-0.2,3.6-0.5c3.9-1.1,7-3.5,8.7-6.7C114.5,25.1,114.7,21.7,113.6,18.4z M98.5,20.2
		c-0.3-0.8-0.2-1.3-0.2-1.6c0,0,0.2,0,0.2,0c1,0,1.9,0.9,2.4,2.3c0.3,0.8,0.2,1.3,0.1,1.4c0,0-0.1,0.1-0.3,0.1c-0.1,0-0.1,0-0.2,0
		C99.8,22.4,99,21.5,98.5,20.2z M71.1,29.5c-0.3,0-0.7,0-1,0.1l0,0c0,0-1.2-5.3-1.2-5.3c0,0,0.1,0,0.1-0.1c1.1,1.8,2.3,3.7,3.4,5.5
		C72,29.6,71.5,29.5,71.1,29.5z"/>
	<path class="st1" d="M32.5,29.3c-0.1-0.3-0.3-0.4-0.6-0.3c-1.5,1-3.1,2-4.6,3.1c-0.2,0.1-0.3,0.5-0.2,0.7c1.1,3.1,2.2,6.2,3.3,9.3
		c-2.6-2.2-5.1-4.3-7.5-6.2c-0.2-0.2-0.5-0.1-0.7,0.1c-1.4,1.2-2.9,2.3-4.2,3.6c-0.2,0.2-0.3,0.5-0.2,0.7c2.1,6.2,4.2,12.4,6.3,18.5
		c0.1,0.2,0.3,0.3,0.5,0.2c1.6-0.7,3.2-1.5,4.9-2.2c0.2-0.1,0.3-0.4,0.3-0.6c-1-2.9-2-5.9-3.1-8.8c2.5,2.1,5.1,4.3,7.8,6.8
		c0.2,0.2,0.5,0.3,0.7,0.2c1.6-0.7,3.3-1.4,5-2.1c0.3-0.1,0.3-0.4,0.3-0.6C37.7,44.3,35.1,36.8,32.5,29.3z"/>
	<path class="st1" d="M49.4,20.4c-0.1-0.3-0.4-0.5-0.7-0.4c-1.6,0.7-3.2,1.5-4.8,2.3c-0.3,0.1-0.4,0.5-0.3,0.9
		c1.7,4.8,3.3,9.5,5,14.3c0.6,1.8,0.2,3.3-0.9,3.8c-1.2,0.5-2.4-0.3-3-2.1c-1.6-4.7-3.3-9.3-4.9-14c-0.1-0.3-0.4-0.5-0.7-0.4
		c-1.6,0.9-3.1,1.8-4.6,2.7c-0.2,0.1-0.4,0.6-0.2,0.9c1.8,5,3.5,10.1,5.3,15.1c2,5.4,6.5,7.1,10.8,5.5c4.3-1.6,6.7-6.2,4.7-12.2
		C53.2,31.3,51.3,25.8,49.4,20.4z"/>
	<path class="st1" d="M71.6,32.7c-0.1-0.3-0.4-0.5-0.6-0.4c-2.6,0.8-5.2,1.7-7.7,2.6c-0.2-0.6-0.4-1.3-0.7-1.9c1.5-0.5,3-1,4.5-1.5
		c0.3-0.1,0.4-0.4,0.3-0.7c-0.4-1.9-0.9-3.8-1.3-5.8c-0.1-0.3-0.3-0.5-0.6-0.4c-1.7,0.6-3.5,1.1-5.2,1.7c-0.2-0.6-0.4-1.3-0.7-1.9
		c2.5-0.9,5-1.7,7.5-2.4c0.3-0.1,0.4-0.4,0.3-0.7c-0.7-2.2-1.5-4.4-2.2-6.7c-0.1-0.3-0.4-0.5-0.7-0.4c-4.4,1.3-8.8,2.8-13.1,4.6
		c-0.2,0.1-0.3,0.4-0.2,0.7c2.8,8.2,5.7,16.5,8.5,24.7c0.1,0.3,0.4,0.5,0.6,0.4c4.4-1.6,8.8-3.1,13.2-4.5c0.2-0.1,0.3-0.4,0.2-0.7
		C73.1,37.2,72.3,35,71.6,32.7z"/>
	<path class="st1" d="M85.3,10.1c-2,0.2-3.9,0.5-5.9,0.8c-0.2,0-0.4,0.3-0.4,0.6c0.4,4.5,0.7,9,1.1,13.6c-2.4-4.1-4.9-8.3-7.4-12.4
		c-0.2-0.2-0.5-0.5-0.7-0.4c-1.9,0.4-3.9,0.9-5.8,1.4c-0.2,0.1-0.3,0.4-0.1,0.6c4.8,7.7,9.6,15.5,14.3,23c0.1,0.2,0.5,0.4,0.7,0.4
		c1.9-0.6,3.7-1.1,5.6-1.7c0.2-0.1,0.4-0.4,0.4-0.7c-0.6-8.6-1-16.9-1.4-24.8C85.8,10.3,85.6,10.1,85.3,10.1z"/>
	<path class="st1" d="M110.9,19.3C109.1,14,102.8,9,96,8.9c-6.8,0-9.7,6.3-7.4,13.4c2.3,7.1,8.5,11.4,14.8,9.7
		C109.7,30.2,112.7,24.7,110.9,19.3z M101.3,25.2C99,25.6,96.8,24,95.8,21c-1-3,0-5.1,2.4-5.3c2.4-0.2,4.6,1.6,5.4,4.2
		C104.5,22.7,103.5,24.8,101.3,25.2z"/>
</g>
<g>
	<path class="st0" d="M143.2,120.3c-0.2-1.3-0.5-2.6-0.8-3.8c-0.2-0.9-0.5-1.8-1.1-2.5c-0.1-0.1-0.1-0.2-0.1-0.3
		c0.1-0.7-0.1-1.4-0.3-2.1c-0.3-1.3-0.5-2.6-1.2-3.8c-0.1-0.2-0.2-0.4-0.2-0.7c0.1-0.6,0.1-1.2-0.1-1.8c-0.6-1.8-1.2-3.6-2.1-5.3
		c-0.3-0.6-0.8-1.1-1.4-1.4c-1.3-0.7-2.6-0.7-3.9-0.3c-2.9,0.9-5.7,2-8.5,3c-0.8,0.3-1.4,0.8-1.9,1.5c-0.1,0.2-0.2,0.3-0.5,0.2
		c-0.9-0.3-1.8-0.2-2.7,0c-2.7,0.6-5.5,1.1-8.3,1.6c-1.7,0.3-3,1-3.8,2.6c-0.1,0.2-0.2,0.2-0.3,0.1c-1.5-0.8-3.1-0.9-4.8-0.9
		c-2.5,0-5,0.1-7.5,0.3c-1.8,0.1-3.2,0.9-4,2.5c0,0-0.1,0.1,0,0c-5-3.8-10.2-4.2-15.7-1.3c-0.7-1.3-1.4-1.9-2.9-2.3
		c-2.5-0.7-5.1-1.4-7.6-2c-1-0.3-2-0.4-3-0.1c-1.6,0.5-2.5,1.7-3.1,3.2c-1.7,4.3-2.8,8.7-3.5,13.2c-0.3,2.1,0.2,3.8,2,5.1
		c2,1.4,4.2,2.1,6.7,1.9c1.7-0.1,2.8-1,3.5-2.6c0.2-0.5,0.3-1.1,0.4-1.7c0-0.2,0.1-0.3,0.3-0.2c0.6,0.1,1.2,0.2,1.9,0.1
		c0.3,0,0.5,0.1,0.6,0.4c0.5,1.7,1.4,3.3,2.6,4.6c3.5,3.8,7.8,4.7,12.7,3.7c1.7-0.4,3.2-1.2,4.6-2.3c0.6,1.9,2,2.8,3.9,2.9
		c1.8,0.2,3.6,0.2,5.5,0.2c1.2,0,2.2-0.4,3-1.4c0.2-0.2,0.3-0.2,0.6-0.1c1.6,1,3.4,1.4,5.3,1.2c1.4-0.1,2.7-0.5,3.7-1.6
		c0.5-0.5,0.8-1.1,1-1.8c0.7,1.3,1.8,2.1,3.2,2.3c1.7,0.2,3.3,0.1,5-0.2c2.7-0.6,5-2.7,4.2-6.3c-0.4-1.8-1.1-5.8-0.9-5.9
		c0.2,0,1,4.6,1.5,6.7c0.3,1.4,1.1,2.4,2.4,3c0.9,0.4,1.9,0.3,2.9,0.1c2-0.5,4-1.1,5.9-1.6c1.5-0.4,2.9-0.9,4.3-1.4
		C142.6,124.1,143.6,122.4,143.2,120.3z M110.8,119.7c-0.6-0.3-0.6-0.3-0.1-1.3c0,0.3,0.1,0.6,0.1,0.9
		C110.8,119.5,110.8,119.6,110.8,119.7z"/>
	<path class="st2" d="M99.3,109.4c1.3,0,2.7-0.1,4,0.1c2.4,0.4,4.3,2.5,4.7,5c0.3,2-0.1,3.9-1.5,5.4c-0.2,0.3-0.4,0.5-0.6,0.8
		c-0.2,0.3-0.1,0.5,0.1,0.7c0.3,0.2,0.6,0.2,0.9,0.2c0.3,0,0.6,0,0.9,0c0.7,0,1.1,0.2,1.1,0.9c0.2,1.6,0.3,3.2,0.3,4.8
		c0,0.7-0.5,1-1.1,1.1c-1.3,0.4-2.6,0.3-3.9-0.3c-0.9-0.4-1.7-1-2.4-1.7c-0.5-0.5-1-1-1.6-1.5c-0.1-0.1-0.2-0.2-0.4-0.2
		c-0.2,0-0.2,0.3-0.2,0.4c-0.1,0.8-0.1,1.5-0.1,2.3c0,1.1-0.4,1.4-1.5,1.4c-1.6,0-3.2-0.1-4.8-0.2c-1.1-0.1-1.4-0.4-1.4-1.5
		c0.2-2.3,0.3-4.6,0.3-7c0-2.8,0-5.6-0.1-8.4c0-0.1,0-0.2,0-0.3c0-1.2,0.6-1.8,1.8-1.9C95.8,109.5,97.5,109.4,99.3,109.4z"/>
	<path class="st2" d="M81.2,128.6c-6,0-9-4.2-9.7-8.6c-0.4-2.4,0.1-4.6,1.4-6.7c1.8-3,4.6-4.3,8-4.2c4,0.1,7.1,1.7,8.9,5.5
		c1.2,2.6,1.1,5.2,0.2,7.9C88.6,126.3,85.4,128.6,81.2,128.6z"/>
	<path class="st2" d="M123.9,105.1c0-0.5,0.2-1,0.7-1.1c2.8-1,5.5-2.1,8.4-2.9c0.2-0.1,0.4-0.1,0.6-0.1c0.4,0,0.8,0.1,1,0.6
		c0.1,0.3,0.3,0.6,0.4,0.9c0.4,1,0.9,2.1,1.3,3.1c0.1,0.3,0.2,0.6,0.2,0.9c0,0.5-0.2,0.8-0.7,1c-1.2,0.4-2.4,0.6-3.6,1.1
		c-0.3,0.1-0.5,0.2-0.7,0.4c-0.3,0.3-0.2,0.7,0.2,0.8c0.3,0.1,0.6,0,0.9-0.1c1-0.3,1.9-0.7,2.9-0.9c1-0.2,1.4,0,1.8,1
		c0.4,1.1,0.6,2.3,0.9,3.4c0.1,0.7-0.2,1.1-0.9,1.2c-1,0.2-2,0.5-2.9,0.7c-0.3,0.1-0.6,0.2-0.9,0.3c-0.4,0.2-0.4,0.5-0.3,0.9
		c0.1,0.4,0.4,0.4,0.8,0.3c1.2-0.3,2.4-0.6,3.6-1c1.1-0.4,1.6-0.1,1.8,1c0.3,1.3,0.6,2.6,0.8,3.9c0.2,0.8-0.1,1.2-0.9,1.5
		c-1,0.4-2,0.8-3.1,1c-2.2,0.6-4.4,1.2-6.6,1.8c-0.1,0-0.2,0.1-0.3,0.1c-0.9,0.2-1.3,0-1.5-1c-0.2-1-0.5-2.1-0.7-3.1
		c-1-4.9-2.1-9.8-3.1-14.8C124.1,105.9,124,105.5,123.9,105.1z"/>
	<path class="st2" d="M117.2,127.8c-0.6,0-1,0-1.5-0.1c-0.6-0.1-1-0.4-1.1-1c-0.2-1.2-0.3-2.4-0.5-3.6c-0.3-2.4-0.5-4.8-0.7-7.2
		c0-0.2,0-0.5-0.1-0.7c0-0.7-0.4-1-1-0.9c-0.4,0-0.8,0.2-1.3,0.2c-0.8,0.1-1.2-0.1-1.4-0.9c-0.2-1.3-0.5-2.6-0.7-4
		c-0.2-1.2,0.2-1.7,1.4-2c3-0.6,6-1.2,9-1.8c1.3-0.2,2,0.2,2.3,1.5c0.2,1.3,0.6,2.5,0.9,3.8c0.2,0.7-0.1,1.1-0.8,1.2
		c-0.3,0.1-0.6,0.1-0.9,0.2c-0.8,0.2-1.1,0.6-1,1.4c0.1,1.2,0.4,2.4,0.5,3.5c0.4,2.6,0.8,5.2,1.2,7.8c0.1,0.9-0.3,1.6-1.2,2
		C119.3,127.7,118.2,127.8,117.2,127.8z"/>
	<path class="st2" d="M67.9,119.5c-0.7,0-1.6-0.3-2.5-0.5c-1.1-0.3-1.5,0-1.7,1.1c-0.1,0.9-0.2,1.8-0.4,2.7
		c-0.1,0.8-0.4,1.1-1.2,1.1c-1.6,0.1-3.1-0.4-4.4-1.2c-0.7-0.4-1-1.1-0.9-1.9c0.6-3.8,1.4-7.5,2.7-11.1c0.3-0.7,0.6-1.5,0.9-2.2
		c0.4-1,1-1.2,2-1c2.7,0.7,5.4,1.4,8.1,2.1c0.7,0.2,0.9,0.5,0.8,1.2c-0.2,1.1-0.5,2.2-0.7,3.3c-0.1,0.6-0.5,0.7-1.2,0.6
		c-1-0.2-1.9-0.4-2.9-0.5c-0.4-0.1-0.7,0-1.1-0.1c-0.1,0-0.3,0-0.3,0.1c0,0.1,0.1,0.2,0.2,0.3c0.5,0.2,1,0.4,1.5,0.5
		c0.7,0.2,1.3,0.3,2,0.4c0.7,0.1,0.9,0.4,0.9,1c-0.1,1.1-0.1,2.2-0.4,3.2C69.2,119.3,68.9,119.5,67.9,119.5z"/>
	<path class="st3" d="M100.3,115c0.5,0,1,0.1,1.4,0.4c0.5,0.3,0.6,0.8,0.2,1.3c-0.5,0.7-1.2,1-2,1c-0.6,0-0.9-0.3-1-1.3
		c-0.1-0.6,0.1-1.1,0.7-1.3C99.8,115,100.1,115,100.3,115z"/>
	<path class="st0" d="M81,115.6c1.7,0,3,1.3,3,3.1c0,1.6-1.4,2.9-3.1,2.9c-1.7,0-3-1.5-3-3.2C77.9,116.7,79.1,115.6,81,115.6z"/>
</g>
</svg>
