<?xml version="1.0" encoding="utf-8"?>
<!-- Generator: Adobe Illustrator 26.3.1, SVG Export Plug-In . SVG Version: 6.00 Build 0)  -->
<svg version="1.1" id="Capa_1" xmlns="http://www.w3.org/2000/svg" xmlns:xlink="http://www.w3.org/1999/xlink" x="0px" y="0px"
	 viewBox="0 0 1155.2 489" style="enable-background:new 0 0 1155.2 489;" xml:space="preserve">
<style type="text/css">
	.st0{fill:#FFFFFF;}
</style>
<g>
	<polygon class="st0" points="337.51,452.02 337.16,452.02 324.77,363.36 296.99,363.36 296.99,487.23 313.98,487.23 313.98,393.44 
		314.33,393.44 328.49,487.23 344.77,487.23 358.93,393.44 359.28,393.44 359.28,487.23 377.68,487.23 377.68,363.36 349.9,363.36 	
		"/>
	<polygon class="st0" points="409.89,487.23 462.98,487.23 462.98,469.54 429.36,469.54 429.36,431.49 456.08,431.49 456.08,413.79 
		429.36,413.79 429.36,381.06 462.98,381.06 462.98,363.36 409.89,363.36 	"/>
	<polygon class="st0" points="535.53,437.51 535.18,437.51 516.24,363.36 491.82,363.36 491.82,487.23 509.16,487.23 509.16,396.81 
		509.52,396.81 532.88,487.23 552.87,487.23 552.87,363.36 535.53,363.36 	"/>
	<path class="st0" d="M618.35,417.86c-6.37-5.54-10.77-10.26-13.18-14.16c-2.42-3.89-3.63-8.08-3.63-12.56
		c0-7.9,3.24-11.86,9.73-11.86c3.19,0,5.6,0.97,7.25,2.92c1.65,1.95,2.48,5.04,2.48,9.29v6.37h18.4v-5.13
		c0-10.03-2.39-17.72-7.17-23.09c-4.78-5.37-11.83-8.05-21.15-8.05c-9.44,0-16.63,2.68-21.59,8.05c-4.96,5.37-7.43,12.95-7.43,22.74
		c0,7.2,1.59,13.66,4.78,19.38c3.19,5.72,8.79,12.12,16.81,19.2c6.37,5.55,10.73,10.29,13.1,14.25c2.36,3.95,3.54,8.52,3.54,13.71
		c0,4.37-0.86,7.52-2.57,9.47c-1.71,1.95-4.22,2.92-7.52,2.92c-6.72,0-10.09-4.01-10.09-12.03v-8.49h-18.4v7.08
		c0,10.03,2.42,17.73,7.26,23.09c4.83,5.37,11.97,8.05,21.41,8.05c9.56,0,16.84-2.71,21.85-8.14c5.01-5.43,7.52-13.21,7.52-23.36
		c0-7.79-1.54-14.57-4.6-20.35C632.09,431.37,626.49,424.94,618.35,417.86z"/>
	<path class="st0" d="M707.18,459.27c0,4.25-0.86,7.32-2.57,9.2c-1.71,1.89-4.16,2.83-7.34,2.83s-5.64-0.94-7.34-2.83
		c-1.71-1.89-2.57-4.96-2.57-9.2v-95.91H667.9v94.5c0,10.03,2.48,17.73,7.43,23.09c4.96,5.37,12.15,8.05,21.59,8.05
		c9.44,0,16.63-2.68,21.59-8.05c4.95-5.37,7.43-13.07,7.43-23.09v-94.5h-18.76V459.27z"/>
	<path class="st0" d="M772.12,363.36l-20.17,123.87H770l3.54-24.24h22.12v-0.35l3.54,24.6h19.47l-20.17-123.87H772.12z
		 M775.84,446.18l8.49-61.23h0.35l8.67,61.23H775.84z"/>
	<polygon class="st0" points="865.2,363.36 845.74,363.36 845.74,487.23 897.23,487.23 897.23,469.54 865.2,469.54 	"/>
	<polygon class="st0" points="924.31,487.23 977.4,487.23 977.4,469.54 943.77,469.54 943.77,431.49 970.49,431.49 970.49,413.79 
		943.77,413.79 943.77,381.06 977.4,381.06 977.4,363.36 924.31,363.36 	"/>
	<path class="st0" d="M1039.86,417.86c-6.37-5.54-10.77-10.26-13.18-14.16c-2.42-3.89-3.63-8.08-3.63-12.56
		c0-7.9,3.24-11.86,9.73-11.86c3.19,0,5.6,0.97,7.25,2.92c1.65,1.95,2.48,5.04,2.48,9.29v6.37h18.4v-5.13
		c0-10.03-2.39-17.72-7.17-23.09c-4.78-5.37-11.83-8.05-21.15-8.05c-9.44,0-16.63,2.68-21.59,8.05c-4.96,5.37-7.43,12.95-7.43,22.74
		c0,7.2,1.59,13.66,4.78,19.38c3.19,5.72,8.79,12.12,16.81,19.2c6.37,5.55,10.73,10.29,13.1,14.25c2.36,3.95,3.54,8.52,3.54,13.71
		c0,4.37-0.86,7.52-2.57,9.47c-1.71,1.95-4.22,2.92-7.52,2.92c-6.72,0-10.09-4.01-10.09-12.03v-8.49h-18.4v7.08
		c0,10.03,2.42,17.73,7.26,23.09c4.83,5.37,11.97,8.05,21.41,8.05c9.56,0,16.84-2.71,21.85-8.14c5.01-5.43,7.52-13.21,7.52-23.36
		c0-7.79-1.54-14.57-4.6-20.35C1053.6,431.37,1048,424.94,1039.86,417.86z"/>
	<path class="st0" d="M19.29,1.15H-0.05v80.59h19.34c12.66,0,18.88-7.02,18.88-19.92V21.07C38.17,8.17,31.96,1.15,19.29,1.15z
		 M25.51,62.4c0,5.76-2.42,7.83-6.45,7.83h-6.45V12.66h6.45c4.03,0,6.45,2.07,6.45,7.83V62.4z"/>
	<polygon class="st0" points="53.6,81.74 88.14,81.74 88.14,70.22 66.26,70.22 66.26,45.47 83.65,45.47 83.65,33.96 66.26,33.96 
		66.26,12.66 88.14,12.66 88.14,1.15 53.6,1.15 	"/>
	<path class="st0" d="M138.1,62.4c0-10.02-3.34-16.46-13.93-25.79c-8.29-7.25-10.94-11.51-10.94-17.38c0-5.53,2.3-7.71,6.33-7.71
		s6.33,2.19,6.33,7.94v4.14h11.97v-3.34c0-12.89-6.1-20.26-18.42-20.26c-12.32,0-18.88,7.37-18.88,20.03
		c0,9.21,3.45,15.77,14.05,25.1c8.29,7.25,10.82,11.51,10.82,18.19c0,5.99-2.53,8.06-6.56,8.06s-6.56-2.07-6.56-7.83v-5.53h-11.97
		v4.6c0,12.89,6.22,20.26,18.65,20.26S138.1,75.52,138.1,62.4z"/>
	<path class="st0" d="M190.48,61.82V21.07c0-12.89-6.22-19.92-18.88-19.92h-19.34v80.59h19.34
		C184.27,81.74,190.48,74.72,190.48,61.82z M164.93,70.22V12.66h6.45c4.03,0,6.45,2.07,6.45,7.83V62.4c0,5.76-2.42,7.83-6.45,7.83
		H164.93z"/>
	<polygon class="st0" points="205.91,81.74 240.45,81.74 240.45,70.22 218.58,70.22 218.58,45.47 235.96,45.47 235.96,33.96 
		218.58,33.96 218.58,12.66 240.45,12.66 240.45,1.15 205.91,1.15 	"/>
	<path class="st0" d="M193.53,133.14l1.71-12.65c0.22-1.62-0.48-2.42-2.1-2.41l-9.48,0.09c-1.62,0.01-2.54,0.83-2.76,2.45
		l-1.71,12.65c-13.3,1.42-24.69,6.66-34.17,15.74c-9.48,9.08-15.13,20.35-16.95,33.81c-1.67,12.33,0.86,22.59,7.6,30.79
		c6.74,8.2,16.92,13.38,30.54,15.52l-6.75,49.88c-11.35-1.03-21.12-5.31-29.32-12.86c-0.98-1.12-2.13-1.03-3.43,0.28l-15.08,16.42
		c-1.31,1.31-1.31,2.53-0.01,3.65c12.29,10.74,27.15,16.36,44.56,16.85l-1.68,12.41c-0.22,1.62,0.48,2.43,2.1,2.41l9.48-0.09
		c1.62-0.01,2.54-0.84,2.76-2.46l1.75-12.9c14.19-2.07,25.87-7.65,35.03-16.72c9.15-9.07,14.67-20.5,16.54-34.29
		c1.71-12.65-0.69-23-7.21-31.04c-6.52-8.04-16.9-13.21-31.15-15.51l6.42-47.44c7.62,1.07,14.92,3.92,21.9,8.55
		c1.19,0.8,2.34,0.63,3.47-0.52l13.42-16.65c0.98-1.3,0.98-2.44-0.02-3.4C218.8,138.34,206.99,134.16,193.53,133.14z M169.84,202.37
		c-11.53-3.3-16.53-10.54-15.02-21.74c0.79-5.84,3.08-10.8,6.87-14.89c3.79-4.08,8.51-6.72,14.18-7.9L169.84,202.37z M195.52,252.93
		c-1.87,13.79-9.07,22.2-21.62,25.22l6.29-46.47C191.86,235.14,196.97,242.22,195.52,252.93z"/>
	<polygon class="st0" points="426.07,210.8 407.58,210.97 412.06,177.88 357.44,178.38 352.96,211.47 312.56,211.83 417.24,48.91 
		354.22,49.48 249.38,212.4 241.98,267.09 345.56,266.15 341.08,299.24 395.69,298.74 400.17,265.66 418.66,265.49 	"/>
	<polygon class="st0" points="447.39,246.66 433.22,351.32 490,312.68 499,246.19 	"/>
	<path class="st0" d="M618.7,296.72l61.52-99.52c10.19-16.3,17.96-29.7,23.31-40.19c5.35-10.49,8.79-21.34,10.31-32.54
		c2.27-16.8,0.53-31.31-5.22-43.53c-5.76-12.22-14.61-21.33-26.57-27.33c-11.96-6-25.47-8.93-40.53-8.79s-29.38,3.33-42.93,9.56
		c-13.56,6.24-24.88,15.54-33.96,27.91c-9.09,12.37-14.76,26.96-17.04,43.78c-1.61,11.9-1.09,22.55,1.57,31.95
		c2.66,9.4,6.8,17.31,12.44,23.71c5.63,6.41,12.21,11.23,19.76,14.48c7.54,3.25,15.08,4.83,22.61,4.77
		c6.05-0.05,10.8-0.67,14.27-1.85l-62.71,98.17L618.7,296.72z M609.51,146.13c-4.11-4.98-5.57-11.88-4.38-20.68
		c1.21-8.91,4.57-15.91,10.11-20.98c5.53-5.07,11.95-7.64,19.25-7.71c7.53-0.07,13.36,2.39,17.47,7.38
		c4.11,4.99,5.56,11.94,4.36,20.85c-1.19,8.8-4.55,15.74-10.08,20.81c-5.53,5.07-12.01,7.64-19.42,7.71
		C619.39,153.57,613.62,151.12,609.51,146.13z"/>
	<path class="st0" d="M888.9,62.26c-6.69-6.56-14.58-11.42-23.67-14.6c-9.09-3.17-19-4.71-29.73-4.61
		c-10.5,0.09-20.74,1.81-30.71,5.16c-9.97,3.34-19.21,8.39-27.7,15.15c-8.5,6.76-15.6,14.98-21.29,24.68
		c-5.7,9.7-9.41,20.89-11.13,33.57l-13.32,98.4c-2.24,16.57-0.45,30.68,5.38,42.33c5.83,11.65,14.51,20.39,26.03,26.22
		c11.52,5.83,24.3,8.68,38.34,8.56c10.38-0.09,20.69-1.87,30.9-5.33c10.22-3.46,19.5-8.45,27.85-14.98
		c8.35-6.52,15.36-14.75,21.04-24.68c5.67-9.92,9.35-21.11,11.04-33.57l13.32-98.4c1.72-12.69,1.09-23.87-1.87-33.54
		C900.42,76.94,895.59,68.83,888.9,62.26z M847.73,120.68l-13.37,98.74c-1.13,8.34-4.16,14.71-9.08,19.09
		c-4.93,4.38-10.64,6.6-17.15,6.66c-6.51,0.06-11.63-2.12-15.36-6.54c-3.74-4.42-5.05-10.68-3.95-18.8l13.37-98.74
		c1.11-8.23,4.14-14.62,9.09-19.17c4.95-4.55,10.67-6.86,17.18-6.92c6.5-0.06,11.63,2.09,15.37,6.45
		C847.58,105.82,848.88,112.23,847.73,120.68z"/>
	<path class="st0" d="M1083.9,60.5c-6.69-6.56-14.58-11.42-23.67-14.6c-9.09-3.17-19-4.71-29.73-4.61
		c-10.5,0.1-20.74,1.82-30.71,5.16c-9.97,3.34-19.21,8.39-27.7,15.15c-8.5,6.76-15.6,14.98-21.29,24.68
		c-5.7,9.7-9.41,20.89-11.13,33.57l-13.32,98.4c-2.24,16.57-0.45,30.68,5.38,42.33c5.83,11.65,14.51,20.39,26.03,26.22
		c11.52,5.83,24.3,8.68,38.34,8.56c10.38-0.09,20.69-1.87,30.9-5.33c10.22-3.46,19.5-8.45,27.85-14.98
		c8.35-6.52,15.36-14.75,21.04-24.68c5.67-9.92,9.35-21.11,11.04-33.57l13.32-98.4c1.72-12.69,1.09-23.87-1.87-33.54
		C1095.42,75.18,1090.59,67.06,1083.9,60.5z M1042.73,118.91l-13.37,98.74c-1.13,8.34-4.16,14.71-9.08,19.09
		c-4.93,4.38-10.64,6.6-17.15,6.66c-6.51,0.06-11.63-2.12-15.36-6.54c-3.74-4.42-5.05-10.68-3.95-18.8l13.37-98.74
		c1.11-8.23,4.14-14.62,9.09-19.17c4.95-4.55,10.67-6.86,17.18-6.92c6.5-0.06,11.63,2.09,15.37,6.45
		C1042.58,104.05,1043.88,110.46,1042.73,118.91z"/>
	<polygon class="st0" points="1156.05,48.29 1154.3,42.98 1145.37,47.22 1146.62,37.36 1141,37.36 1142.25,47.22 1133.32,42.98 
		1131.57,48.29 1141.12,50.35 1134.5,57.34 1139,60.65 1143.81,52.22 1148.62,60.65 1153.11,57.34 1146.49,50.35 	"/>
</g>
</svg>
